#N canvas 960 47 952 492 10;
#N canvas 0 47 952 1025 betatchoonsm8 0;
#X floatatom 339 50 5 0 0 0 - - -;
#X obj 856 137 sp_808_seq;
#N canvas 0 47 952 1025 metropolis 0;
#X obj 655 171 bng 15 250 50 0 empty empty empty 17 7 0 10 -262144
-1 -1;
#X text 682 170 reset;
#X obj 580 233 +;
#X msg 580 205 1;
#X obj 547 307 %;
#X floatatom 468 214 5 0 0 0 - - -;
#X msg 657 195 0;
#N canvas 0 47 1048 1025 pulse_calc 0;
#X obj 164 264 + 8;
#X floatatom 164 295 5 0 0 0 - - -;
#X obj 164 233 * -1;
#X obj 203 264 + 8;
#X floatatom 204 296 5 0 0 0 - - -;
#X obj 203 233 * -1;
#X obj 240 263 + 8;
#X floatatom 240 293 5 0 0 0 - - -;
#X obj 240 232 * -1;
#X obj 279 263 + 8;
#X floatatom 279 293 5 0 0 0 - - -;
#X obj 279 232 * -1;
#X obj 322 260 + 8;
#X floatatom 322 290 5 0 0 0 - - -;
#X obj 322 229 * -1;
#X obj 361 260 + 8;
#X floatatom 361 290 5 0 0 0 - - -;
#X obj 361 229 * -1;
#X obj 398 259 + 8;
#X floatatom 398 289 5 0 0 0 - - -;
#X obj 398 228 * -1;
#X obj 437 259 + 8;
#X floatatom 437 289 5 0 0 0 - - -;
#X obj 437 228 * -1;
#X floatatom 600 277 5 0 0 0 - - -;
#X obj 103 266 bng 15 250 50 0 empty empty empty 17 7 0 10 -262144
-1 -1;
#N canvas 0 47 1048 1025 pulse_d 0;
#X floatatom 203 258 5 0 0 0 - - -;
#X floatatom 287 262 5 0 0 0 - - -;
#X obj 166 368 +;
#X floatatom 160 258 5 0 0 0 - - -;
#X obj 195 403 <;
#X obj 196 460 select 1;
#X obj 196 487 bng 15 250 50 0 empty empty empty 17 7 0 10 -262144
-1 -1;
#X obj 194 433 spigot;
#X obj 288 239 inlet;
#X text 219 488 pulse;
#X obj 288 405 ==;
#X obj 286 437 select 1;
#X obj 286 464 bng 15 250 50 0 empty empty empty 17 7 0 10 -262144
-1 -1;
#X text 309 465 on;
#X obj 202 527 outlet;
#X obj 287 503 outlet;
#X text 321 264 step;
#X text 209 208 this;
#X text 137 206 prev;
#X obj 160 232 inlet;
#X obj 203 232 inlet;
#X obj 406 401 outlet;
#X obj 218 292 bng 15 250 50 0 empty empty empty 17 7 0 10 -262144
-1 -1;
#X obj 222 403 >=;
#X connect 0 0 2 1;
#X connect 0 0 22 0;
#X connect 1 0 4 0;
#X connect 1 0 10 0;
#X connect 1 0 23 0;
#X connect 2 0 4 1;
#X connect 2 0 21 0;
#X connect 3 0 2 0;
#X connect 3 0 10 1;
#X connect 3 0 23 1;
#X connect 4 0 7 0;
#X connect 5 0 6 0;
#X connect 6 0 14 0;
#X connect 7 0 5 0;
#X connect 8 0 1 0;
#X connect 10 0 11 0;
#X connect 11 0 12 0;
#X connect 12 0 15 0;
#X connect 19 0 3 0;
#X connect 20 0 0 0;
#X connect 22 0 2 0;
#X connect 23 0 7 1;
#X restore 123 345 pd pulse_d;
#X obj 123 370 bng 15 250 50 0 empty empty empty 17 7 0 10 -262144
-1 -1;
#X obj 143 370 bng 15 250 50 0 empty empty empty 17 7 0 10 -262144
-1 -1;
#X floatatom 90 296 5 0 0 0 - - -;
#N canvas 0 47 1048 1025 pulse_d 0;
#X floatatom 203 258 5 0 0 0 - - -;
#X floatatom 287 262 5 0 0 0 - - -;
#X obj 166 368 +;
#X floatatom 160 258 5 0 0 0 - - -;
#X obj 195 403 <;
#X obj 196 460 select 1;
#X obj 196 487 bng 15 250 50 0 empty empty empty 17 7 0 10 -262144
-1 -1;
#X obj 194 433 spigot;
#X obj 288 239 inlet;
#X text 219 488 pulse;
#X obj 288 405 ==;
#X obj 286 437 select 1;
#X obj 286 464 bng 15 250 50 0 empty empty empty 17 7 0 10 -262144
-1 -1;
#X text 309 465 on;
#X obj 202 527 outlet;
#X obj 287 503 outlet;
#X text 321 264 step;
#X text 209 208 this;
#X text 137 206 prev;
#X obj 160 232 inlet;
#X obj 203 232 inlet;
#X obj 406 401 outlet;
#X obj 218 292 bng 15 250 50 0 empty empty empty 17 7 0 10 -262144
-1 -1;
#X obj 222 403 >=;
#X connect 0 0 2 1;
#X connect 0 0 22 0;
#X connect 1 0 4 0;
#X connect 1 0 10 0;
#X connect 1 0 23 0;
#X connect 2 0 4 1;
#X connect 2 0 21 0;
#X connect 3 0 2 0;
#X connect 3 0 10 1;
#X connect 3 0 23 1;
#X connect 4 0 7 0;
#X connect 5 0 6 0;
#X connect 6 0 14 0;
#X connect 7 0 5 0;
#X connect 8 0 1 0;
#X connect 10 0 11 0;
#X connect 11 0 12 0;
#X connect 12 0 15 0;
#X connect 19 0 3 0;
#X connect 20 0 0 0;
#X connect 22 0 2 0;
#X connect 23 0 7 1;
#X restore 187 383 pd pulse_d;
#X obj 187 409 bng 15 250 50 0 empty empty empty 17 7 0 10 -262144
-1 -1;
#X obj 207 409 bng 15 250 50 0 empty empty empty 17 7 0 10 -262144
-1 -1;
#N canvas 0 47 1048 1025 pulse_d 0;
#X floatatom 203 258 5 0 0 0 - - -;
#X floatatom 287 262 5 0 0 0 - - -;
#X obj 166 368 +;
#X floatatom 160 258 5 0 0 0 - - -;
#X obj 195 403 <;
#X obj 196 460 select 1;
#X obj 196 487 bng 15 250 50 0 empty empty empty 17 7 0 10 -262144
-1 -1;
#X obj 194 433 spigot;
#X obj 288 239 inlet;
#X text 219 488 pulse;
#X obj 288 405 ==;
#X obj 286 437 select 1;
#X obj 286 464 bng 15 250 50 0 empty empty empty 17 7 0 10 -262144
-1 -1;
#X text 309 465 on;
#X obj 202 527 outlet;
#X obj 287 503 outlet;
#X text 321 264 step;
#X text 209 208 this;
#X text 137 206 prev;
#X obj 160 232 inlet;
#X obj 203 232 inlet;
#X obj 406 401 outlet;
#X obj 218 292 bng 15 250 50 0 empty empty empty 17 7 0 10 -262144
-1 -1;
#X obj 222 403 >=;
#X connect 0 0 2 1;
#X connect 0 0 22 0;
#X connect 1 0 4 0;
#X connect 1 0 10 0;
#X connect 1 0 23 0;
#X connect 2 0 4 1;
#X connect 2 0 21 0;
#X connect 3 0 2 0;
#X connect 3 0 10 1;
#X connect 3 0 23 1;
#X connect 4 0 7 0;
#X connect 5 0 6 0;
#X connect 6 0 14 0;
#X connect 7 0 5 0;
#X connect 8 0 1 0;
#X connect 10 0 11 0;
#X connect 11 0 12 0;
#X connect 12 0 15 0;
#X connect 19 0 3 0;
#X connect 20 0 0 0;
#X connect 22 0 2 0;
#X connect 23 0 7 1;
#X restore 246 414 pd pulse_d;
#X obj 246 439 bng 15 250 50 0 empty empty empty 17 7 0 10 -262144
-1 -1;
#X obj 266 439 bng 15 250 50 0 empty empty empty 17 7 0 10 -262144
-1 -1;
#N canvas 0 47 1048 1025 pulse_d 0;
#X floatatom 203 258 5 0 0 0 - - -;
#X floatatom 287 262 5 0 0 0 - - -;
#X obj 166 368 +;
#X floatatom 160 258 5 0 0 0 - - -;
#X obj 195 403 <;
#X obj 196 460 select 1;
#X obj 196 487 bng 15 250 50 0 empty empty empty 17 7 0 10 -262144
-1 -1;
#X obj 194 433 spigot;
#X obj 288 239 inlet;
#X text 219 488 pulse;
#X obj 288 405 ==;
#X obj 286 437 select 1;
#X obj 286 464 bng 15 250 50 0 empty empty empty 17 7 0 10 -262144
-1 -1;
#X text 309 465 on;
#X obj 202 527 outlet;
#X obj 287 503 outlet;
#X text 321 264 step;
#X text 209 208 this;
#X text 137 206 prev;
#X obj 160 232 inlet;
#X obj 203 232 inlet;
#X obj 406 401 outlet;
#X obj 218 292 bng 15 250 50 0 empty empty empty 17 7 0 10 -262144
-1 -1;
#X obj 222 403 >=;
#X connect 0 0 2 1;
#X connect 0 0 22 0;
#X connect 1 0 4 0;
#X connect 1 0 10 0;
#X connect 1 0 23 0;
#X connect 2 0 4 1;
#X connect 2 0 21 0;
#X connect 3 0 2 0;
#X connect 3 0 10 1;
#X connect 3 0 23 1;
#X connect 4 0 7 0;
#X connect 5 0 6 0;
#X connect 6 0 14 0;
#X connect 7 0 5 0;
#X connect 8 0 1 0;
#X connect 10 0 11 0;
#X connect 11 0 12 0;
#X connect 12 0 15 0;
#X connect 19 0 3 0;
#X connect 20 0 0 0;
#X connect 22 0 2 0;
#X connect 23 0 7 1;
#X restore 303 438 pd pulse_d;
#X obj 303 464 bng 15 250 50 0 empty empty empty 17 7 0 10 -262144
-1 -1;
#X obj 323 464 bng 15 250 50 0 empty empty empty 17 7 0 10 -262144
-1 -1;
#N canvas 0 47 1048 1025 pulse_d 0;
#X floatatom 203 258 5 0 0 0 - - -;
#X floatatom 287 262 5 0 0 0 - - -;
#X obj 166 368 +;
#X floatatom 160 258 5 0 0 0 - - -;
#X obj 195 403 <;
#X obj 196 460 select 1;
#X obj 196 487 bng 15 250 50 0 empty empty empty 17 7 0 10 -262144
-1 -1;
#X obj 194 433 spigot;
#X obj 288 239 inlet;
#X text 219 488 pulse;
#X obj 288 405 ==;
#X obj 286 437 select 1;
#X obj 286 464 bng 15 250 50 0 empty empty empty 17 7 0 10 -262144
-1 -1;
#X text 309 465 on;
#X obj 202 527 outlet;
#X obj 287 503 outlet;
#X text 321 264 step;
#X text 209 208 this;
#X text 137 206 prev;
#X obj 160 232 inlet;
#X obj 203 232 inlet;
#X obj 406 401 outlet;
#X obj 218 292 bng 15 250 50 0 empty empty empty 17 7 0 10 -262144
-1 -1;
#X obj 222 403 >=;
#X connect 0 0 2 1;
#X connect 0 0 22 0;
#X connect 1 0 4 0;
#X connect 1 0 10 0;
#X connect 1 0 23 0;
#X connect 2 0 4 1;
#X connect 2 0 21 0;
#X connect 3 0 2 0;
#X connect 3 0 10 1;
#X connect 3 0 23 1;
#X connect 4 0 7 0;
#X connect 5 0 6 0;
#X connect 6 0 14 0;
#X connect 7 0 5 0;
#X connect 8 0 1 0;
#X connect 10 0 11 0;
#X connect 11 0 12 0;
#X connect 12 0 15 0;
#X connect 19 0 3 0;
#X connect 20 0 0 0;
#X connect 22 0 2 0;
#X connect 23 0 7 1;
#X restore 359 461 pd pulse_d;
#X obj 359 486 bng 15 250 50 0 empty empty empty 17 7 0 10 -262144
-1 -1;
#X obj 379 486 bng 15 250 50 0 empty empty empty 17 7 0 10 -262144
-1 -1;
#N canvas 0 47 1048 1025 pulse_d 0;
#X floatatom 203 258 5 0 0 0 - - -;
#X floatatom 287 262 5 0 0 0 - - -;
#X obj 166 368 +;
#X floatatom 160 258 5 0 0 0 - - -;
#X obj 195 403 <;
#X obj 196 460 select 1;
#X obj 196 487 bng 15 250 50 0 empty empty empty 17 7 0 10 -262144
-1 -1;
#X obj 194 433 spigot;
#X obj 288 239 inlet;
#X text 219 488 pulse;
#X obj 288 405 ==;
#X obj 286 437 select 1;
#X obj 286 464 bng 15 250 50 0 empty empty empty 17 7 0 10 -262144
-1 -1;
#X text 309 465 on;
#X obj 202 527 outlet;
#X obj 287 503 outlet;
#X text 321 264 step;
#X text 209 208 this;
#X text 137 206 prev;
#X obj 160 232 inlet;
#X obj 203 232 inlet;
#X obj 406 401 outlet;
#X obj 218 292 bng 15 250 50 0 empty empty empty 17 7 0 10 -262144
-1 -1;
#X obj 222 403 >=;
#X connect 0 0 2 1;
#X connect 0 0 22 0;
#X connect 1 0 4 0;
#X connect 1 0 10 0;
#X connect 1 0 23 0;
#X connect 2 0 4 1;
#X connect 2 0 21 0;
#X connect 3 0 2 0;
#X connect 3 0 10 1;
#X connect 3 0 23 1;
#X connect 4 0 7 0;
#X connect 5 0 6 0;
#X connect 6 0 14 0;
#X connect 7 0 5 0;
#X connect 8 0 1 0;
#X connect 10 0 11 0;
#X connect 11 0 12 0;
#X connect 12 0 15 0;
#X connect 19 0 3 0;
#X connect 20 0 0 0;
#X connect 22 0 2 0;
#X connect 23 0 7 1;
#X restore 423 499 pd pulse_d;
#X obj 423 525 bng 15 250 50 0 empty empty empty 17 7 0 10 -262144
-1 -1;
#X obj 443 525 bng 15 250 50 0 empty empty empty 17 7 0 10 -262144
-1 -1;
#N canvas 0 47 1048 1025 pulse_d 0;
#X floatatom 203 258 5 0 0 0 - - -;
#X floatatom 287 262 5 0 0 0 - - -;
#X obj 166 368 +;
#X floatatom 160 258 5 0 0 0 - - -;
#X obj 195 403 <;
#X obj 196 460 select 1;
#X obj 196 487 bng 15 250 50 0 empty empty empty 17 7 0 10 -262144
-1 -1;
#X obj 194 433 spigot;
#X obj 288 239 inlet;
#X text 219 488 pulse;
#X obj 288 405 ==;
#X obj 286 437 select 1;
#X obj 286 464 bng 15 250 50 0 empty empty empty 17 7 0 10 -262144
-1 -1;
#X text 309 465 on;
#X obj 202 527 outlet;
#X obj 287 503 outlet;
#X text 321 264 step;
#X text 209 208 this;
#X text 137 206 prev;
#X obj 160 232 inlet;
#X obj 203 232 inlet;
#X obj 406 401 outlet;
#X obj 218 292 bng 15 250 50 0 empty empty empty 17 7 0 10 -262144
-1 -1;
#X obj 222 403 >=;
#X connect 0 0 2 1;
#X connect 0 0 22 0;
#X connect 1 0 4 0;
#X connect 1 0 10 0;
#X connect 1 0 23 0;
#X connect 2 0 4 1;
#X connect 2 0 21 0;
#X connect 3 0 2 0;
#X connect 3 0 10 1;
#X connect 3 0 23 1;
#X connect 4 0 7 0;
#X connect 5 0 6 0;
#X connect 6 0 14 0;
#X connect 7 0 5 0;
#X connect 8 0 1 0;
#X connect 10 0 11 0;
#X connect 11 0 12 0;
#X connect 12 0 15 0;
#X connect 19 0 3 0;
#X connect 20 0 0 0;
#X connect 22 0 2 0;
#X connect 23 0 7 1;
#X restore 482 530 pd pulse_d;
#X obj 482 555 bng 15 250 50 0 empty empty empty 17 7 0 10 -262144
-1 -1;
#X obj 502 555 bng 15 250 50 0 empty empty empty 17 7 0 10 -262144
-1 -1;
#N canvas 0 47 1048 1025 pulse_d 0;
#X floatatom 203 258 5 0 0 0 - - -;
#X floatatom 287 262 5 0 0 0 - - -;
#X obj 166 368 +;
#X floatatom 160 258 5 0 0 0 - - -;
#X obj 195 403 <;
#X obj 196 460 select 1;
#X obj 196 487 bng 15 250 50 0 empty empty empty 17 7 0 10 -262144
-1 -1;
#X obj 194 433 spigot;
#X obj 288 239 inlet;
#X text 219 488 pulse;
#X obj 288 405 ==;
#X obj 286 437 select 1;
#X obj 286 464 bng 15 250 50 0 empty empty empty 17 7 0 10 -262144
-1 -1;
#X text 309 465 on;
#X obj 202 527 outlet;
#X obj 287 503 outlet;
#X text 321 264 step;
#X text 209 208 this;
#X text 137 206 prev;
#X obj 160 232 inlet;
#X obj 203 232 inlet;
#X obj 406 401 outlet;
#X obj 218 292 bng 15 250 50 0 empty empty empty 17 7 0 10 -262144
-1 -1;
#X obj 222 403 >=;
#X connect 0 0 2 1;
#X connect 0 0 22 0;
#X connect 1 0 4 0;
#X connect 1 0 10 0;
#X connect 1 0 23 0;
#X connect 2 0 4 1;
#X connect 2 0 21 0;
#X connect 3 0 2 0;
#X connect 3 0 10 1;
#X connect 3 0 23 1;
#X connect 4 0 7 0;
#X connect 5 0 6 0;
#X connect 6 0 14 0;
#X connect 7 0 5 0;
#X connect 8 0 1 0;
#X connect 10 0 11 0;
#X connect 11 0 12 0;
#X connect 12 0 15 0;
#X connect 19 0 3 0;
#X connect 20 0 0 0;
#X connect 22 0 2 0;
#X connect 23 0 7 1;
#X restore 539 554 pd pulse_d;
#X obj 539 580 bng 15 250 50 0 empty empty empty 17 7 0 10 -262144
-1 -1;
#X obj 559 580 bng 15 250 50 0 empty empty empty 17 7 0 10 -262144
-1 -1;
#X obj 599 255 inlet;
#X obj 159 190 inlet;
#X obj 200 190 inlet;
#X obj 239 189 inlet;
#X obj 280 189 inlet;
#X obj 326 188 inlet;
#X obj 367 188 inlet;
#X obj 406 187 inlet;
#X obj 447 187 inlet;
#X msg 121 400 1;
#X msg 149 401 1;
#X msg 448 680 start \$1;
#X msg 129 656 pulse \$1;
#X msg 175 435 2;
#X msg 203 436 2;
#X msg 233 465 3;
#X msg 261 466 3;
#X msg 287 500 4;
#X msg 315 501 4;
#X msg 349 524 5;
#X msg 377 525 5;
#X msg 403 559 6;
#X msg 431 560 6;
#X msg 461 589 7;
#X msg 489 590 7;
#X msg 529 615 8;
#X msg 557 616 8;
#X obj 512 781 outlet;
#X msg 669 533 pos \$1;
#N canvas 0 47 1048 1025 sum8 0;
#X obj 81 67 inlet;
#X obj 179 57 inlet;
#X obj 128 111 bng 15 250 50 0 empty empty empty 17 7 0 10 -262144
-1 -1;
#X obj 230 57 inlet;
#X obj 288 57 inlet;
#X obj 336 55 inlet;
#X obj 382 55 inlet;
#X obj 440 57 inlet;
#X obj 493 55 inlet;
#X obj 121 164 + 0;
#X obj 159 194 + 0;
#X obj 213 240 + 0;
#X obj 250 287 + 0;
#X obj 293 333 + 0;
#X obj 347 379 + 0;
#X obj 384 426 + 0;
#X obj 389 467 outlet;
#X obj 169 136 delay 1;
#X connect 0 0 9 0;
#X connect 1 0 2 0;
#X connect 1 0 9 1;
#X connect 2 0 9 0;
#X connect 2 0 17 0;
#X connect 3 0 10 1;
#X connect 3 0 2 0;
#X connect 4 0 11 1;
#X connect 4 0 2 0;
#X connect 5 0 12 1;
#X connect 5 0 2 0;
#X connect 6 0 13 1;
#X connect 6 0 2 0;
#X connect 7 0 14 1;
#X connect 7 0 2 0;
#X connect 8 0 15 1;
#X connect 8 0 2 0;
#X connect 9 0 10 0;
#X connect 10 0 11 0;
#X connect 11 0 12 0;
#X connect 12 0 13 0;
#X connect 13 0 14 0;
#X connect 14 0 15 0;
#X connect 15 0 16 0;
#X connect 17 0 9 0;
#X restore 745 472 pd sum8;
#X f 26;
#X floatatom 761 581 5 0 0 0 - - -;
#X obj 760 635 outlet;
#X connect 0 0 1 0;
#X connect 1 0 26 1;
#X connect 2 0 0 0;
#X connect 2 0 25 0;
#X connect 3 0 4 0;
#X connect 4 0 30 1;
#X connect 5 0 3 0;
#X connect 5 0 25 0;
#X connect 6 0 7 0;
#X connect 7 0 33 1;
#X connect 8 0 6 0;
#X connect 8 0 25 0;
#X connect 9 0 10 0;
#X connect 10 0 36 1;
#X connect 11 0 9 0;
#X connect 11 0 25 0;
#X connect 12 0 13 0;
#X connect 13 0 39 1;
#X connect 14 0 12 0;
#X connect 14 0 25 0;
#X connect 15 0 16 0;
#X connect 16 0 42 1;
#X connect 17 0 15 0;
#X connect 17 0 25 0;
#X connect 18 0 19 0;
#X connect 19 0 45 1;
#X connect 20 0 18 0;
#X connect 20 0 25 0;
#X connect 21 0 22 0;
#X connect 22 0 48 1;
#X connect 23 0 21 0;
#X connect 23 0 25 0;
#X connect 24 0 26 2;
#X connect 24 0 30 2;
#X connect 24 0 48 2;
#X connect 24 0 33 2;
#X connect 24 0 36 2;
#X connect 24 0 39 2;
#X connect 24 0 42 2;
#X connect 24 0 45 2;
#X connect 24 0 79 0;
#X connect 25 0 1 0;
#X connect 25 0 22 0;
#X connect 25 0 19 0;
#X connect 25 0 16 0;
#X connect 25 0 13 0;
#X connect 25 0 10 0;
#X connect 25 0 7 0;
#X connect 25 0 4 0;
#X connect 25 0 29 0;
#X connect 26 0 27 0;
#X connect 26 1 28 0;
#X connect 26 2 30 0;
#X connect 27 0 60 0;
#X connect 28 0 61 0;
#X connect 29 0 26 0;
#X connect 30 0 31 0;
#X connect 30 1 32 0;
#X connect 30 2 33 0;
#X connect 31 0 64 0;
#X connect 32 0 65 0;
#X connect 33 0 34 0;
#X connect 33 1 35 0;
#X connect 33 2 36 0;
#X connect 34 0 66 0;
#X connect 35 0 67 0;
#X connect 36 0 37 0;
#X connect 36 1 38 0;
#X connect 36 2 39 0;
#X connect 37 0 68 0;
#X connect 38 0 69 0;
#X connect 39 0 40 0;
#X connect 39 1 41 0;
#X connect 39 2 42 0;
#X connect 40 0 70 0;
#X connect 41 0 71 0;
#X connect 42 0 43 0;
#X connect 42 1 44 0;
#X connect 42 2 45 0;
#X connect 43 0 72 0;
#X connect 44 0 73 0;
#X connect 45 0 46 0;
#X connect 45 1 47 0;
#X connect 45 2 48 0;
#X connect 46 0 74 0;
#X connect 47 0 75 0;
#X connect 48 0 49 0;
#X connect 48 1 50 0;
#X connect 48 2 81 0;
#X connect 49 0 76 0;
#X connect 50 0 77 0;
#X connect 51 0 24 0;
#X connect 52 0 2 0;
#X connect 53 0 5 0;
#X connect 54 0 8 0;
#X connect 55 0 11 0;
#X connect 56 0 14 0;
#X connect 57 0 17 0;
#X connect 58 0 20 0;
#X connect 59 0 23 0;
#X connect 60 0 63 0;
#X connect 61 0 62 0;
#X connect 62 0 78 0;
#X connect 63 0 78 0;
#X connect 64 0 63 0;
#X connect 65 0 62 0;
#X connect 66 0 63 0;
#X connect 67 0 62 0;
#X connect 68 0 63 0;
#X connect 69 0 62 0;
#X connect 70 0 63 0;
#X connect 71 0 62 0;
#X connect 72 0 63 0;
#X connect 73 0 62 0;
#X connect 74 0 63 0;
#X connect 75 0 62 0;
#X connect 76 0 63 0;
#X connect 77 0 62 0;
#X connect 79 0 78 0;
#X connect 81 0 82 0;
#X restore 263 255 pd pulse_calc;
#X f 33;
#X obj 100 133 vradio 15 1 0 8 empty empty empty 0 -8 0 10 -262144
-1 -1 3;
#X obj 115 133 vradio 15 1 0 8 empty empty empty 0 -8 0 10 -262144
-1 -1 5;
#X obj 130 133 vradio 15 1 0 8 empty empty empty 0 -8 0 10 -262144
-1 -1 3;
#X obj 145 133 vradio 15 1 0 8 empty empty empty 0 -8 0 10 -262144
-1 -1 7;
#X obj 163 133 vradio 15 1 0 8 empty empty empty 0 -8 0 10 -262144
-1 -1 4;
#X obj 178 133 vradio 15 1 0 8 empty empty empty 0 -8 0 10 -262144
-1 -1 4;
#X obj 193 133 vradio 15 1 0 8 empty empty empty 0 -8 0 10 -262144
-1 -1 2;
#X obj 208 133 vradio 15 1 0 8 empty empty empty 0 -8 0 10 -262144
-1 -1 6;
#N canvas 0 47 952 1025 gate_calc 0;
#N canvas 0 47 1048 1025 gate_mode 0;
#X msg 225 262 set \$1;
#X floatatom 213 286 5 0 0 0 - - -;
#X obj 151 246 bng 15 250 50 0 empty empty empty 17 7 0 10 -262144
-1 -1;
#X obj 213 308 select 0 1 2 3;
#X text 175 244 on;
#X obj 78 243 bng 15 250 50 0 empty empty empty 17 7 0 10 -262144 -1
-1;
#X text 99 244 pulse;
#X obj 219 500 tgl 15 0 empty empty empty 17 7 0 10 -262144 -1 -1 1
1;
#X msg 358 367 0;
#X obj 89 342 spigot;
#X obj 136 347 tgl 15 0 empty empty empty 17 7 0 10 -262144 -1 -1 0
1;
#X obj 132 310 == 1;
#X floatatom 227 233 5 0 0 0 - - -;
#X obj 253 334 t b b b;
#X obj 90 368 t b b b;
#X msg 153 392 0;
#X msg 121 395 1;
#X msg 299 367 0;
#X msg 271 368 1;
#X obj 185 359 t b b b;
#X msg 220 388 0;
#X msg 192 389 1;
#X obj 75 170 inlet;
#X obj 130 169 inlet;
#X obj 220 155 inlet;
#X obj 220 560 outlet;
#X connect 0 0 1 0;
#X connect 1 0 3 0;
#X connect 2 0 1 0;
#X connect 2 0 9 0;
#X connect 3 0 19 0;
#X connect 3 2 13 0;
#X connect 3 3 8 0;
#X connect 5 0 9 0;
#X connect 7 0 25 0;
#X connect 8 0 7 0;
#X connect 9 0 14 0;
#X connect 11 0 9 1;
#X connect 11 0 10 0;
#X connect 12 0 0 0;
#X connect 12 0 11 0;
#X connect 13 1 18 0;
#X connect 13 2 17 0;
#X connect 14 1 16 0;
#X connect 14 2 15 0;
#X connect 15 0 7 0;
#X connect 16 0 7 0;
#X connect 17 0 7 0;
#X connect 18 0 7 0;
#X connect 19 1 21 0;
#X connect 19 2 20 0;
#X connect 20 0 7 0;
#X connect 21 0 7 0;
#X connect 22 0 5 0;
#X connect 23 0 2 0;
#X connect 24 0 12 0;
#X restore 39 624 pd gate_mode;
#X obj 104 700 select 0 1;
#X obj 104 727 bng 15 250 50 0 empty empty empty 17 7 0 10 -262144
-1 -1;
#X obj 132 728 bng 15 250 50 0 empty empty empty 17 7 0 10 -262144
-1 -1;
#X obj 100 586 bng 15 250 50 0 empty empty empty 17 7 0 10 -262144
-1 -1;
#X text 124 584 on;
#X obj 27 583 bng 15 250 50 0 empty empty empty 17 7 0 10 -262144 -1
-1;
#X text 48 584 pulse;
#X obj 39 650 tgl 15 0 empty empty empty 17 7 0 10 -262144 -1 -1 1
1;
#X obj 20 25 inlet;
#X obj 20 61 route pulse start pos;
#X obj 779 115 inlet;
#X obj 780 145 route 1 2 3 4 5 6 7 8;
#X msg 569 278 set \$1, f 7;
#X msg 624 279 set \$1, f 7;
#X msg 683 280 set \$1, f 7;
#X msg 738 281 set \$1, f 7;
#X msg 805 280 set \$1, f 7;
#X msg 860 281 set \$1, f 7;
#X msg 919 282 set \$1, f 7;
#X msg 974 283 set \$1, f 7;
#X floatatom 568 321 5 0 0 0 - - -;
#X floatatom 625 323 5 0 0 0 - - -;
#X floatatom 688 325 5 0 0 0 - - -;
#X floatatom 745 327 5 0 0 0 - - -;
#X floatatom 810 327 5 0 0 0 - - -;
#X floatatom 867 329 5 0 0 0 - - -;
#X floatatom 930 331 5 0 0 0 - - -;
#X floatatom 987 333 5 0 0 0 - - -;
#X obj 623 129 select 1 2 3 4 5 6 7 8;
#X floatatom 581 819 5 0 0 0 - - -;
#X msg 577 431 set \$1, f 7;
#X obj 281 223 route 1 2 3 4 5 6 7 8;
#X msg 70 356 set \$1, f 7;
#X msg 125 357 set \$1, f 7;
#X msg 184 358 set \$1, f 7;
#X msg 239 359 set \$1, f 7;
#X msg 306 358 set \$1, f 7;
#X msg 361 359 set \$1, f 7;
#X msg 420 360 set \$1, f 7;
#X msg 475 361 set \$1, f 7;
#X floatatom 69 399 5 0 0 0 - - -;
#X floatatom 126 401 5 0 0 0 - - -;
#X floatatom 189 403 5 0 0 0 - - -;
#X floatatom 246 405 5 0 0 0 - - -;
#X floatatom 311 405 5 0 0 0 - - -;
#X floatatom 368 407 5 0 0 0 - - -;
#X floatatom 431 409 5 0 0 0 - - -;
#X floatatom 488 411 5 0 0 0 - - -;
#X obj 119 199 select 1 2 3 4 5 6 7 8;
#X obj 302 179 inlet;
#X floatatom 216 588 5 0 0 0 - - -;
#X obj 581 896 outlet;
#X obj 581 847 int;
#X floatatom 581 872 5 0 0 0 - - -;
#X obj 31 802 outlet;
#X msg 309 495 \$1, f 7;
#X obj 127 123 outlet;
#X obj 38 750 change;
#X connect 0 0 8 0;
#X connect 1 0 2 0;
#X connect 1 1 3 0;
#X connect 1 1 30 0;
#X connect 4 0 0 1;
#X connect 6 0 0 0;
#X connect 8 0 1 0;
#X connect 8 0 58 0;
#X connect 9 0 10 0;
#X connect 10 0 6 0;
#X connect 10 1 29 0;
#X connect 10 1 49 0;
#X connect 10 1 4 0;
#X connect 10 1 57 0;
#X connect 11 0 12 0;
#X connect 12 0 13 0;
#X connect 12 1 14 0;
#X connect 12 2 15 0;
#X connect 12 3 16 0;
#X connect 12 4 17 0;
#X connect 12 5 18 0;
#X connect 12 6 19 0;
#X connect 12 7 20 0;
#X connect 13 0 21 0;
#X connect 14 0 22 0;
#X connect 15 0 23 0;
#X connect 16 0 24 0;
#X connect 17 0 25 0;
#X connect 18 0 26 0;
#X connect 19 0 27 0;
#X connect 20 0 28 0;
#X connect 21 0 31 0;
#X connect 22 0 31 0;
#X connect 23 0 31 0;
#X connect 24 0 31 0;
#X connect 25 0 31 0;
#X connect 26 0 31 0;
#X connect 27 0 31 0;
#X connect 28 0 31 0;
#X connect 29 0 21 0;
#X connect 29 1 22 0;
#X connect 29 2 23 0;
#X connect 29 3 24 0;
#X connect 29 4 25 0;
#X connect 29 5 26 0;
#X connect 29 6 27 0;
#X connect 29 7 28 0;
#X connect 30 0 53 0;
#X connect 31 0 30 0;
#X connect 32 0 33 0;
#X connect 32 1 34 0;
#X connect 32 2 35 0;
#X connect 32 3 36 0;
#X connect 32 4 37 0;
#X connect 32 5 38 0;
#X connect 32 6 39 0;
#X connect 32 7 40 0;
#X connect 33 0 41 0;
#X connect 34 0 42 0;
#X connect 35 0 43 0;
#X connect 36 0 44 0;
#X connect 37 0 45 0;
#X connect 38 0 46 0;
#X connect 39 0 47 0;
#X connect 40 0 48 0;
#X connect 41 0 56 0;
#X connect 42 0 56 0;
#X connect 43 0 56 0;
#X connect 44 0 56 0;
#X connect 45 0 56 0;
#X connect 46 0 56 0;
#X connect 47 0 56 0;
#X connect 48 0 56 0;
#X connect 49 0 41 0;
#X connect 49 1 42 0;
#X connect 49 2 43 0;
#X connect 49 3 44 0;
#X connect 49 4 45 0;
#X connect 49 5 46 0;
#X connect 49 6 47 0;
#X connect 49 7 48 0;
#X connect 50 0 32 0;
#X connect 51 0 0 2;
#X connect 53 0 54 0;
#X connect 54 0 52 0;
#X connect 56 0 51 0;
#X connect 58 0 55 0;
#X restore 452 377 pd gate_calc;
#N canvas 0 47 1048 1025 pitch_sel 0;
#X obj 172 125 inlet;
#X floatatom 172 232 5 0 0 0 - - -;
#X msg 176 293 1 \$1;
#X obj 173 404 outlet;
#X obj 223 127 inlet;
#X floatatom 223 234 5 0 0 0 - - -;
#X obj 264 125 inlet;
#X floatatom 264 232 5 0 0 0 - - -;
#X obj 314 125 inlet;
#X floatatom 314 232 5 0 0 0 - - -;
#X obj 369 128 inlet;
#X floatatom 369 235 5 0 0 0 - - -;
#X obj 420 130 inlet;
#X floatatom 420 237 5 0 0 0 - - -;
#X obj 461 128 inlet;
#X floatatom 461 235 5 0 0 0 - - -;
#X obj 511 128 inlet;
#X floatatom 511 235 5 0 0 0 - - -;
#X msg 227 295 2 \$1;
#X msg 268 293 3 \$1;
#X msg 318 293 4 \$1;
#X msg 373 296 5 \$1;
#X msg 424 298 6 \$1;
#X msg 465 296 7 \$1;
#X msg 515 296 8 \$1;
#X obj 606 195 bng 15 250 50 0 empty empty empty 17 7 0 10 -262144
-1 -1;
#X connect 0 0 1 0;
#X connect 0 0 25 0;
#X connect 1 0 2 0;
#X connect 2 0 3 0;
#X connect 4 0 5 0;
#X connect 4 0 25 0;
#X connect 5 0 18 0;
#X connect 6 0 7 0;
#X connect 6 0 25 0;
#X connect 7 0 19 0;
#X connect 8 0 9 0;
#X connect 8 0 25 0;
#X connect 9 0 20 0;
#X connect 10 0 11 0;
#X connect 10 0 25 0;
#X connect 11 0 21 0;
#X connect 12 0 13 0;
#X connect 12 0 25 0;
#X connect 13 0 22 0;
#X connect 14 0 15 0;
#X connect 14 0 25 0;
#X connect 15 0 23 0;
#X connect 16 0 17 0;
#X connect 16 0 25 0;
#X connect 17 0 24 0;
#X connect 18 0 3 0;
#X connect 19 0 3 0;
#X connect 20 0 3 0;
#X connect 21 0 3 0;
#X connect 22 0 3 0;
#X connect 23 0 3 0;
#X connect 24 0 3 0;
#X connect 25 0 17 0;
#X connect 25 0 15 0;
#X connect 25 0 13 0;
#X connect 25 0 11 0;
#X connect 25 0 9 0;
#X connect 25 0 7 0;
#X connect 25 0 5 0;
#X connect 25 0 1 0;
#X restore 261 133 pd pitch_sel;
#X f 21;
#X obj 100 103 vsl 15 24 0 12 0 0 empty empty empty 0 -9 0 10 -1 -257985
-1 1342 1;
#X obj 115 103 vsl 15 24 0 12 0 0 empty empty empty 0 -9 0 10 -1 -257985
-1 1150 1;
#X obj 130 103 vsl 15 24 0 12 0 0 empty empty empty 0 -9 0 10 -1 -257985
-1 0 1;
#X obj 145 103 vsl 15 24 0 12 0 0 empty empty empty 0 -9 0 10 -1 -257985
-1 767 1;
#X obj 163 103 vsl 15 24 0 12 0 0 empty empty empty 0 -9 0 10 -1 -257985
-1 575 1;
#X obj 178 103 vsl 15 24 0 12 0 0 empty empty empty 0 -9 0 10 -1 -257985
-1 1342 1;
#X obj 193 103 vsl 15 24 0 12 0 0 empty empty empty 0 -9 0 10 -1 -257985
-1 192 1;
#X obj 208 103 vsl 15 24 0 12 0 0 empty empty empty 0 -9 0 10 -1 -257985
-1 1150 1;
#N canvas 0 47 1048 1025 gate_sel 0;
#X obj 172 125 inlet;
#X floatatom 172 232 5 0 0 0 - - -;
#X msg 176 293 1 \$1;
#X obj 173 404 outlet;
#X obj 223 127 inlet;
#X floatatom 223 234 5 0 0 0 - - -;
#X obj 264 125 inlet;
#X floatatom 264 232 5 0 0 0 - - -;
#X obj 314 125 inlet;
#X floatatom 314 232 5 0 0 0 - - -;
#X obj 369 128 inlet;
#X floatatom 369 235 5 0 0 0 - - -;
#X obj 420 130 inlet;
#X floatatom 420 237 5 0 0 0 - - -;
#X obj 461 128 inlet;
#X floatatom 461 235 5 0 0 0 - - -;
#X obj 511 128 inlet;
#X floatatom 511 235 5 0 0 0 - - -;
#X msg 227 295 2 \$1;
#X msg 268 293 3 \$1;
#X msg 318 293 4 \$1;
#X msg 373 296 5 \$1;
#X msg 424 298 6 \$1;
#X msg 465 296 7 \$1;
#X msg 515 296 8 \$1;
#X obj 606 195 bng 15 250 50 0 empty empty empty 17 7 0 10 -262144
-1 -1;
#X connect 0 0 1 0;
#X connect 0 0 25 0;
#X connect 1 0 2 0;
#X connect 2 0 3 0;
#X connect 4 0 5 0;
#X connect 4 0 25 0;
#X connect 5 0 18 0;
#X connect 6 0 7 0;
#X connect 6 0 25 0;
#X connect 7 0 19 0;
#X connect 8 0 9 0;
#X connect 8 0 25 0;
#X connect 9 0 20 0;
#X connect 10 0 11 0;
#X connect 10 0 25 0;
#X connect 11 0 21 0;
#X connect 12 0 13 0;
#X connect 12 0 25 0;
#X connect 13 0 22 0;
#X connect 14 0 15 0;
#X connect 14 0 25 0;
#X connect 15 0 23 0;
#X connect 16 0 17 0;
#X connect 16 0 25 0;
#X connect 17 0 24 0;
#X connect 18 0 3 0;
#X connect 19 0 3 0;
#X connect 20 0 3 0;
#X connect 21 0 3 0;
#X connect 22 0 3 0;
#X connect 23 0 3 0;
#X connect 24 0 3 0;
#X connect 25 0 17 0;
#X connect 25 0 15 0;
#X connect 25 0 13 0;
#X connect 25 0 11 0;
#X connect 25 0 9 0;
#X connect 25 0 7 0;
#X connect 25 0 5 0;
#X connect 25 0 1 0;
#X restore 242 313 pd gate_sel;
#X f 21;
#X obj 100 255 vradio 15 1 0 4 empty empty empty 0 -8 0 10 -262144
-1 -1 2;
#X obj 115 255 vradio 15 1 0 4 empty empty empty 0 -8 0 10 -262144
-1 -1 0;
#X obj 130 255 vradio 15 1 0 4 empty empty empty 0 -8 0 10 -262144
-1 -1 2;
#X obj 145 255 vradio 15 1 0 4 empty empty empty 0 -8 0 10 -262144
-1 -1 0;
#X obj 163 255 vradio 15 1 0 4 empty empty empty 0 -8 0 10 -262144
-1 -1 1;
#X obj 178 255 vradio 15 1 0 4 empty empty empty 0 -8 0 10 -262144
-1 -1 3;
#X obj 193 255 vradio 15 1 0 4 empty empty empty 0 -8 0 10 -262144
-1 -1 1;
#X obj 208 255 vradio 15 1 0 4 empty empty empty 0 -8 0 10 -262144
-1 -1 2;
#X obj 578 57 inlet;
#X obj 580 176 bng 15 250 50 0 empty empty empty 17 7 0 10 -262144
-1 -1;
#X text 607 175 clock;
#X obj 663 62 inlet;
#X obj 548 443 outlet;
#X obj 476 444 outlet;
#X obj 103 376 hsl 119 15 1 8 0 0 empty empty empty -2 -8 0 10 -191407
-260097 -204786 0 1;
#X obj -57 86 route 1 2 3 4 5 6 7 8;
#X obj -54 12 inlet;
#X obj -57 108 route 1 2 3 4 5 6 7 8;
#X obj -52 232 route 1 2 3 4 5 6 7 8;
#N canvas 0 47 1240 1025 params 0;
#X obj 68 26 inlet;
#X obj 138 169 bng 15 250 50 0 empty empty empty 17 7 0 10 -262144
-1 -1;
#X obj 173 212 random 12;
#X obj 124 257 pack;
#X obj 101 218 random 8;
#X obj 157 109 random 3;
#X obj 123 132 select 0 1 2;
#X obj 314 159 bng 15 250 50 0 empty empty empty 17 7 0 10 -262144
-1 -1;
#X obj 300 247 pack;
#X obj 277 208 random 8;
#X obj 530 157 bng 15 250 50 0 empty empty empty 17 7 0 10 -262144
-1 -1;
#X obj 516 245 pack;
#X obj 493 206 random 8;
#X obj 565 200 random 4;
#X obj 349 202 random 8;
#X obj 117 298 outlet;
#X obj 296 295 outlet;
#X obj 516 292 outlet;
#X obj 184 80 bng 15 250 50 0 empty empty empty 17 7 0 10 -262144 -1
-1;
#X obj 302 40 loadbang;
#N canvas 0 47 1048 1025 init 0;
#X obj 502 252 pack;
#X obj 516 187 * 5;
#X obj 516 210 % 7;
#X obj 515 144 bang;
#X obj 516 164 random 4;
#X msg 502 88 1 \, 2 \, 3 \, 4 \, 5 \, 6 \, 7 \, 8;
#X obj 501 63 inlet;
#X obj 502 275 outlet;
#X obj 590 206 outlet;
#X obj 648 208 outlet;
#X msg 647 181 \$1 2;
#X msg 586 176 \$1 7;
#X connect 0 0 7 0;
#X connect 1 0 2 0;
#X connect 2 0 0 1;
#X connect 3 0 4 0;
#X connect 4 0 1 0;
#X connect 5 0 3 0;
#X connect 5 0 0 0;
#X connect 5 0 11 0;
#X connect 5 0 10 0;
#X connect 6 0 5 0;
#X connect 10 0 9 0;
#X connect 11 0 8 0;
#X restore 302 66 pd init;
#X obj 66 53 route pitch pulse gate init;
#X obj 698 278 outlet;
#X obj 773 280 outlet;
#X connect 0 0 21 0;
#X connect 1 0 2 0;
#X connect 1 0 4 0;
#X connect 2 0 3 1;
#X connect 3 0 15 0;
#X connect 4 0 3 0;
#X connect 5 0 6 0;
#X connect 6 0 1 0;
#X connect 6 1 7 0;
#X connect 6 2 10 0;
#X connect 7 0 9 0;
#X connect 7 0 14 0;
#X connect 8 0 16 0;
#X connect 9 0 8 0;
#X connect 10 0 12 0;
#X connect 10 0 13 0;
#X connect 11 0 17 0;
#X connect 12 0 11 0;
#X connect 13 0 11 1;
#X connect 14 0 8 1;
#X connect 18 0 5 0;
#X connect 18 0 22 0;
#X connect 19 0 20 0;
#X connect 20 0 15 0;
#X connect 20 1 16 0;
#X connect 20 2 17 0;
#X connect 21 0 15 0;
#X connect 21 1 16 0;
#X connect 21 2 17 0;
#X connect 21 3 20 0;
#X connect 21 4 18 0;
#X connect 21 4 23 0;
#X restore -55 61 pd params;
#N canvas 0 47 1048 1025 gate_sel 0;
#X obj 172 125 inlet;
#X floatatom 172 232 5 0 0 0 - - -;
#X msg 176 293 1 \$1;
#X obj 173 404 outlet;
#X obj 223 127 inlet;
#X floatatom 223 234 5 0 0 0 - - -;
#X obj 264 125 inlet;
#X floatatom 264 232 5 0 0 0 - - -;
#X obj 314 125 inlet;
#X floatatom 314 232 5 0 0 0 - - -;
#X obj 369 128 inlet;
#X floatatom 369 235 5 0 0 0 - - -;
#X obj 420 130 inlet;
#X floatatom 420 237 5 0 0 0 - - -;
#X obj 461 128 inlet;
#X floatatom 461 235 5 0 0 0 - - -;
#X obj 511 128 inlet;
#X floatatom 511 235 5 0 0 0 - - -;
#X msg 227 295 2 \$1;
#X msg 268 293 3 \$1;
#X msg 318 293 4 \$1;
#X msg 373 296 5 \$1;
#X msg 424 298 6 \$1;
#X msg 465 296 7 \$1;
#X msg 515 296 8 \$1;
#X obj 606 195 bng 15 250 50 0 empty empty empty 17 7 0 10 -262144
-1 -1;
#X connect 0 0 1 0;
#X connect 0 0 25 0;
#X connect 1 0 2 0;
#X connect 2 0 3 0;
#X connect 4 0 5 0;
#X connect 4 0 25 0;
#X connect 5 0 18 0;
#X connect 6 0 7 0;
#X connect 6 0 25 0;
#X connect 7 0 19 0;
#X connect 8 0 9 0;
#X connect 8 0 25 0;
#X connect 9 0 20 0;
#X connect 10 0 11 0;
#X connect 10 0 25 0;
#X connect 11 0 21 0;
#X connect 12 0 13 0;
#X connect 12 0 25 0;
#X connect 13 0 22 0;
#X connect 14 0 15 0;
#X connect 14 0 25 0;
#X connect 15 0 23 0;
#X connect 16 0 17 0;
#X connect 16 0 25 0;
#X connect 17 0 24 0;
#X connect 18 0 3 0;
#X connect 19 0 3 0;
#X connect 20 0 3 0;
#X connect 21 0 3 0;
#X connect 22 0 3 0;
#X connect 23 0 3 0;
#X connect 24 0 3 0;
#X connect 25 0 17 0;
#X connect 25 0 15 0;
#X connect 25 0 13 0;
#X connect 25 0 11 0;
#X connect 25 0 9 0;
#X connect 25 0 7 0;
#X connect 25 0 5 0;
#X connect 25 0 1 0;
#X restore 243 376 pd gate_sel;
#X f 21;
#X obj 100 315 vradio 15 1 0 4 empty empty empty 0 -8 0 10 -262144
-99865 -1 2;
#X obj 115 315 vradio 15 1 0 4 empty empty empty 0 -8 0 10 -262144
-99865 -1 3;
#X obj 130 315 vradio 15 1 0 4 empty empty empty 0 -8 0 10 -262144
-99865 -1 3;
#X obj 145 315 vradio 15 1 0 4 empty empty empty 0 -8 0 10 -262144
-99865 -1 3;
#X obj 163 315 vradio 15 1 0 4 empty empty empty 0 -8 0 10 -262144
-99865 -1 3;
#X obj 178 315 vradio 15 1 0 4 empty empty empty 0 -8 0 10 -262144
-99865 -1 3;
#X obj 193 315 vradio 15 1 0 4 empty empty empty 0 -8 0 10 -262144
-99865 -1 3;
#X obj 208 315 vradio 15 1 0 4 empty empty empty 0 -8 0 10 -262144
-99865 -1 3;
#N canvas 0 47 952 1025 gate_calc 0;
#N canvas 0 47 952 1025 gate_mode 0;
#X msg 225 262 set \$1;
#X floatatom 213 286 5 0 0 0 - - -;
#X obj 151 246 bng 15 250 50 0 empty empty empty 17 7 0 10 -262144
-1 -1;
#X obj 213 308 select 0 1 2 3;
#X text 175 244 on;
#X obj 78 243 bng 15 250 50 0 empty empty empty 17 7 0 10 -262144 -1
-1;
#X text 99 244 pulse;
#X obj 219 500 tgl 15 0 empty empty empty 17 7 0 10 -262144 -1 -1 1
1;
#X msg 358 367 0;
#X obj 89 342 spigot;
#X obj 136 347 tgl 15 0 empty empty empty 17 7 0 10 -262144 -1 -1 0
1;
#X obj 132 310 == 1;
#X floatatom 227 233 5 0 0 0 - - -;
#X obj 253 334 t b b b;
#X obj 90 368 t b b b;
#X msg 153 392 0;
#X msg 121 395 1;
#X msg 299 367 0;
#X msg 271 368 1;
#X obj 185 359 t b b b;
#X msg 220 388 0;
#X msg 192 389 1;
#X obj 75 170 inlet;
#X obj 130 169 inlet;
#X obj 220 155 inlet;
#X obj 220 560 outlet;
#X connect 0 0 1 0;
#X connect 1 0 3 0;
#X connect 2 0 1 0;
#X connect 2 0 9 0;
#X connect 3 0 19 0;
#X connect 3 2 13 0;
#X connect 3 3 8 0;
#X connect 5 0 9 0;
#X connect 7 0 25 0;
#X connect 8 0 7 0;
#X connect 9 0 14 0;
#X connect 11 0 9 1;
#X connect 11 0 10 0;
#X connect 12 0 0 0;
#X connect 12 0 11 0;
#X connect 13 1 18 0;
#X connect 13 2 17 0;
#X connect 14 1 16 0;
#X connect 14 2 15 0;
#X connect 15 0 7 0;
#X connect 16 0 7 0;
#X connect 17 0 7 0;
#X connect 18 0 7 0;
#X connect 19 1 21 0;
#X connect 19 2 20 0;
#X connect 20 0 7 0;
#X connect 21 0 7 0;
#X connect 22 0 5 0;
#X connect 23 0 2 0;
#X connect 24 0 12 0;
#X restore 39 624 pd gate_mode;
#X obj 104 700 select 0 1;
#X obj 104 727 bng 15 250 50 0 empty empty empty 17 7 0 10 -262144
-1 -1;
#X obj 132 728 bng 15 250 50 0 empty empty empty 17 7 0 10 -262144
-1 -1;
#X obj 100 586 bng 15 250 50 0 empty empty empty 17 7 0 10 -262144
-1 -1;
#X text 124 584 on;
#X obj 27 583 bng 15 250 50 0 empty empty empty 17 7 0 10 -262144 -1
-1;
#X text 48 584 pulse;
#X obj 39 650 tgl 15 0 empty empty empty 17 7 0 10 -262144 -1 -1 1
1;
#X obj 20 25 inlet;
#X obj 20 61 route pulse start pos;
#X obj 779 115 inlet;
#X obj 780 145 route 1 2 3 4 5 6 7 8;
#X msg 569 278 set \$1, f 7;
#X msg 624 279 set \$1, f 7;
#X msg 683 280 set \$1, f 7;
#X msg 738 281 set \$1, f 7;
#X msg 805 280 set \$1, f 7;
#X msg 860 281 set \$1, f 7;
#X msg 919 282 set \$1, f 7;
#X msg 974 283 set \$1, f 7;
#X floatatom 568 321 5 0 0 0 - - -;
#X floatatom 625 323 5 0 0 0 - - -;
#X floatatom 688 325 5 0 0 0 - - -;
#X floatatom 745 327 5 0 0 0 - - -;
#X floatatom 810 327 5 0 0 0 - - -;
#X floatatom 867 329 5 0 0 0 - - -;
#X floatatom 930 331 5 0 0 0 - - -;
#X floatatom 987 333 5 0 0 0 - - -;
#X obj 623 129 select 1 2 3 4 5 6 7 8;
#X floatatom 581 819 5 0 0 0 - - -;
#X msg 577 431 set \$1, f 7;
#X obj 281 223 route 1 2 3 4 5 6 7 8;
#X msg 70 356 set \$1, f 7;
#X msg 125 357 set \$1, f 7;
#X msg 184 358 set \$1, f 7;
#X msg 239 359 set \$1, f 7;
#X msg 306 358 set \$1, f 7;
#X msg 361 359 set \$1, f 7;
#X msg 420 360 set \$1, f 7;
#X msg 475 361 set \$1, f 7;
#X floatatom 69 399 5 0 0 0 - - -;
#X floatatom 126 401 5 0 0 0 - - -;
#X floatatom 189 403 5 0 0 0 - - -;
#X floatatom 246 405 5 0 0 0 - - -;
#X floatatom 311 405 5 0 0 0 - - -;
#X floatatom 368 407 5 0 0 0 - - -;
#X floatatom 431 409 5 0 0 0 - - -;
#X floatatom 488 411 5 0 0 0 - - -;
#X obj 119 199 select 1 2 3 4 5 6 7 8;
#X obj 302 179 inlet;
#X floatatom 216 588 5 0 0 0 - - -;
#X obj 581 896 outlet;
#X obj 581 847 int;
#X floatatom 581 872 5 0 0 0 - - -;
#X obj 31 802 outlet;
#X msg 309 495 \$1, f 7;
#X obj 127 123 outlet;
#X obj 39 748 change;
#X connect 0 0 8 0;
#X connect 1 0 2 0;
#X connect 1 1 3 0;
#X connect 1 1 30 0;
#X connect 4 0 0 1;
#X connect 6 0 0 0;
#X connect 8 0 1 0;
#X connect 8 0 58 0;
#X connect 9 0 10 0;
#X connect 10 0 6 0;
#X connect 10 1 29 0;
#X connect 10 1 49 0;
#X connect 10 1 4 0;
#X connect 10 1 57 0;
#X connect 11 0 12 0;
#X connect 12 0 13 0;
#X connect 12 1 14 0;
#X connect 12 2 15 0;
#X connect 12 3 16 0;
#X connect 12 4 17 0;
#X connect 12 5 18 0;
#X connect 12 6 19 0;
#X connect 12 7 20 0;
#X connect 13 0 21 0;
#X connect 14 0 22 0;
#X connect 15 0 23 0;
#X connect 16 0 24 0;
#X connect 17 0 25 0;
#X connect 18 0 26 0;
#X connect 19 0 27 0;
#X connect 20 0 28 0;
#X connect 21 0 31 0;
#X connect 22 0 31 0;
#X connect 23 0 31 0;
#X connect 24 0 31 0;
#X connect 25 0 31 0;
#X connect 26 0 31 0;
#X connect 27 0 31 0;
#X connect 28 0 31 0;
#X connect 29 0 21 0;
#X connect 29 1 22 0;
#X connect 29 2 23 0;
#X connect 29 3 24 0;
#X connect 29 4 25 0;
#X connect 29 5 26 0;
#X connect 29 6 27 0;
#X connect 29 7 28 0;
#X connect 30 0 53 0;
#X connect 31 0 30 0;
#X connect 32 0 33 0;
#X connect 32 1 34 0;
#X connect 32 2 35 0;
#X connect 32 3 36 0;
#X connect 32 4 37 0;
#X connect 32 5 38 0;
#X connect 32 6 39 0;
#X connect 32 7 40 0;
#X connect 33 0 41 0;
#X connect 34 0 42 0;
#X connect 35 0 43 0;
#X connect 36 0 44 0;
#X connect 37 0 45 0;
#X connect 38 0 46 0;
#X connect 39 0 47 0;
#X connect 40 0 48 0;
#X connect 41 0 56 0;
#X connect 42 0 56 0;
#X connect 43 0 56 0;
#X connect 44 0 56 0;
#X connect 45 0 56 0;
#X connect 46 0 56 0;
#X connect 47 0 56 0;
#X connect 48 0 56 0;
#X connect 49 0 41 0;
#X connect 49 1 42 0;
#X connect 49 2 43 0;
#X connect 49 3 44 0;
#X connect 49 4 45 0;
#X connect 49 5 46 0;
#X connect 49 6 47 0;
#X connect 49 7 48 0;
#X connect 50 0 32 0;
#X connect 51 0 0 2;
#X connect 53 0 54 0;
#X connect 54 0 52 0;
#X connect 56 0 51 0;
#X connect 58 0 55 0;
#X restore 646 415 pd gate_calc;
#X obj 720 508 outlet;
#X obj 640 508 outlet;
#X obj -53 296 route 1 2 3 8 5 2 6 3;
#X obj 597 86 % 64;
#X obj 597 109 select 0;
#X obj 121 390 bng 15 250 50 0 empty empty 64 -17 7 0 10 -260097 -1
-1;
#X obj 185 391 bng 15 250 50 0 empty empty Rand 17 7 0 10 -258113 -1
-1;
#X obj 238 207 loadbang;
#X obj 194 471 random 64;
#X msg 220 534 4;
#X msg 192 533 3;
#X msg 248 535 6;
#X msg 276 536 8;
#X msg 308 536 12;
#X msg 336 537 16;
#X msg 364 538 24;
#X obj 365 486 bng 15 250 50 0 empty empty empty 17 7 0 10 -262144
-1 -1;
#X floatatom 175 596 5 0 0 0 - - -;
#X msg 114 526 64;
#X msg 496 102 set \$1;
#X floatatom 496 125 5 0 0 0 - - -;
#X obj 143 391 hsl 40 15 3 64 0 0 empty empty 64. 20 8 0 10 -262144
-1 -1 3900 1;
#X msg 306 438 label \$1.;
#X obj 137 456 int;
#X obj 196 500 select 3 4 6 8 12 16 24;
#X obj 783 59 inlet;
#X obj 312 667 route 0;
#N canvas 0 47 1336 1025 packed_pairs 0;
#X obj 225 246 route data;
#X obj 225 273 unpack 0 0 0 0 0 0 0 0;
#X msg 153 318 1 \$1;
#X msg 185 318 2 \$1;
#X msg 220 318 3 \$1;
#X msg 252 318 4 \$1;
#X msg 287 319 5 \$1;
#X msg 319 319 6 \$1;
#X msg 354 319 7 \$1;
#X msg 386 319 8 \$1;
#X msg 244 381 \$1 \$2;
#X obj 230 191 inlet;
#X obj 243 422 outlet;
#X connect 0 0 1 0;
#X connect 1 0 2 0;
#X connect 1 1 3 0;
#X connect 1 2 4 0;
#X connect 1 3 5 0;
#X connect 1 4 6 0;
#X connect 1 5 7 0;
#X connect 1 6 8 0;
#X connect 1 7 9 0;
#X connect 2 0 10 0;
#X connect 3 0 10 0;
#X connect 4 0 10 0;
#X connect 5 0 10 0;
#X connect 6 0 10 0;
#X connect 7 0 10 0;
#X connect 8 0 10 0;
#X connect 9 0 10 0;
#X connect 10 0 12 0;
#X connect 11 0 0 0;
#X restore 312 705 pd packed_pairs;
#X obj 312 750 unpack;
#X obj 312 811 pack;
#N canvas 0 47 1336 1025 packed_pairs 0;
#X obj 225 246 route data;
#X obj 225 273 unpack 0 0 0 0 0 0 0 0;
#X msg 153 318 1 \$1;
#X msg 185 318 2 \$1;
#X msg 220 318 3 \$1;
#X msg 252 318 4 \$1;
#X msg 287 319 5 \$1;
#X msg 319 319 6 \$1;
#X msg 354 319 7 \$1;
#X msg 386 319 8 \$1;
#X msg 244 381 \$1 \$2;
#X obj 230 191 inlet;
#X obj 243 422 outlet;
#X connect 0 0 1 0;
#X connect 1 0 2 0;
#X connect 1 1 3 0;
#X connect 1 2 4 0;
#X connect 1 3 5 0;
#X connect 1 4 6 0;
#X connect 1 5 7 0;
#X connect 1 6 8 0;
#X connect 1 7 9 0;
#X connect 2 0 10 0;
#X connect 3 0 10 0;
#X connect 4 0 10 0;
#X connect 5 0 10 0;
#X connect 6 0 10 0;
#X connect 7 0 10 0;
#X connect 8 0 10 0;
#X connect 9 0 10 0;
#X connect 10 0 12 0;
#X connect 11 0 0 0;
#X restore 440 708 pd packed_pairs;
#X obj 440 753 unpack;
#X obj 440 814 pack;
#N canvas 0 47 1336 1025 packed_pairs 0;
#X obj 225 246 route data;
#X obj 225 273 unpack 0 0 0 0 0 0 0 0;
#X msg 153 318 1 \$1;
#X msg 185 318 2 \$1;
#X msg 220 318 3 \$1;
#X msg 252 318 4 \$1;
#X msg 287 319 5 \$1;
#X msg 319 319 6 \$1;
#X msg 354 319 7 \$1;
#X msg 386 319 8 \$1;
#X msg 244 381 \$1 \$2;
#X obj 230 191 inlet;
#X obj 243 422 outlet;
#X connect 0 0 1 0;
#X connect 1 0 2 0;
#X connect 1 1 3 0;
#X connect 1 2 4 0;
#X connect 1 3 5 0;
#X connect 1 4 6 0;
#X connect 1 5 7 0;
#X connect 1 6 8 0;
#X connect 1 7 9 0;
#X connect 2 0 10 0;
#X connect 3 0 10 0;
#X connect 4 0 10 0;
#X connect 5 0 10 0;
#X connect 6 0 10 0;
#X connect 7 0 10 0;
#X connect 8 0 10 0;
#X connect 9 0 10 0;
#X connect 10 0 12 0;
#X connect 11 0 0 0;
#X restore 540 710 pd packed_pairs;
#X obj 540 755 unpack;
#X obj 540 816 pack;
#X obj 440 670 route 0 1;
#X obj 448 781 expr ($i1*-1)+3;
#X obj 564 784 expr ($i1*-1)+3;
#X obj 336 779 expr ($i1*-1)+7;
#X obj 312 639 route metropolis_repeats metropolis_gate_dual metropolis_pitch
, f 67;
#X obj 668 677 route 0;
#N canvas 0 47 1336 1025 packed_pairs 0;
#X obj 225 246 route data;
#X obj 225 273 unpack 0 0 0 0 0 0 0 0;
#X msg 153 318 1 \$1;
#X msg 185 318 2 \$1;
#X msg 220 318 3 \$1;
#X msg 252 318 4 \$1;
#X msg 287 319 5 \$1;
#X msg 319 319 6 \$1;
#X msg 354 319 7 \$1;
#X msg 386 319 8 \$1;
#X msg 244 381 \$1 \$2;
#X obj 230 191 inlet;
#X obj 243 422 outlet;
#X connect 0 0 1 0;
#X connect 1 0 2 0;
#X connect 1 1 3 0;
#X connect 1 2 4 0;
#X connect 1 3 5 0;
#X connect 1 4 6 0;
#X connect 1 5 7 0;
#X connect 1 6 8 0;
#X connect 1 7 9 0;
#X connect 2 0 10 0;
#X connect 3 0 10 0;
#X connect 4 0 10 0;
#X connect 5 0 10 0;
#X connect 6 0 10 0;
#X connect 7 0 10 0;
#X connect 8 0 10 0;
#X connect 9 0 10 0;
#X connect 10 0 12 0;
#X connect 11 0 0 0;
#X restore 668 715 pd packed_pairs;
#X obj 668 760 unpack;
#X obj 668 821 pack;
#X obj 692 789 expr int((($f1+0.3)/8)*12);
#X connect 0 0 6 0;
#X connect 2 0 4 0;
#X connect 3 0 2 0;
#X connect 4 0 5 0;
#X connect 4 0 2 1;
#X connect 5 0 7 8;
#X connect 6 0 2 1;
#X connect 7 0 16 0;
#X connect 7 0 56 0;
#X connect 7 1 4 1;
#X connect 8 0 7 0;
#X connect 9 0 7 1;
#X connect 10 0 7 2;
#X connect 11 0 7 3;
#X connect 12 0 7 4;
#X connect 13 0 7 5;
#X connect 14 0 7 6;
#X connect 15 0 7 7;
#X connect 16 0 39 0;
#X connect 16 1 41 0;
#X connect 16 2 40 0;
#X connect 17 0 16 2;
#X connect 17 0 56 2;
#X connect 18 0 17 0;
#X connect 19 0 17 1;
#X connect 20 0 17 2;
#X connect 21 0 17 3;
#X connect 22 0 17 4;
#X connect 23 0 17 5;
#X connect 24 0 17 6;
#X connect 25 0 17 7;
#X connect 26 0 16 1;
#X connect 27 0 26 0;
#X connect 28 0 26 1;
#X connect 29 0 26 2;
#X connect 30 0 26 3;
#X connect 31 0 26 4;
#X connect 32 0 26 5;
#X connect 33 0 26 6;
#X connect 34 0 26 7;
#X connect 35 0 36 0;
#X connect 35 0 60 0;
#X connect 36 0 3 0;
#X connect 38 0 0 0;
#X connect 42 0 18 0;
#X connect 42 1 19 0;
#X connect 42 2 20 0;
#X connect 42 3 21 0;
#X connect 42 4 22 0;
#X connect 42 5 23 0;
#X connect 42 6 24 0;
#X connect 42 7 25 0;
#X connect 43 0 46 0;
#X connect 44 0 8 0;
#X connect 44 1 9 0;
#X connect 44 2 10 0;
#X connect 44 3 11 0;
#X connect 44 4 12 0;
#X connect 44 5 13 0;
#X connect 44 6 14 0;
#X connect 44 7 15 0;
#X connect 45 0 27 0;
#X connect 45 1 28 0;
#X connect 45 2 29 0;
#X connect 45 3 30 0;
#X connect 45 4 31 0;
#X connect 45 5 32 0;
#X connect 45 6 33 0;
#X connect 45 7 34 0;
#X connect 46 0 42 0;
#X connect 46 1 44 0;
#X connect 46 2 45 0;
#X connect 46 2 59 0;
#X connect 46 3 63 0;
#X connect 46 4 62 0;
#X connect 47 0 56 1;
#X connect 48 0 47 0;
#X connect 49 0 47 1;
#X connect 50 0 47 2;
#X connect 51 0 47 3;
#X connect 52 0 47 4;
#X connect 53 0 47 5;
#X connect 54 0 47 6;
#X connect 55 0 47 7;
#X connect 56 0 57 0;
#X connect 56 2 58 0;
#X connect 59 0 48 0;
#X connect 59 1 49 0;
#X connect 59 2 50 0;
#X connect 59 3 51 0;
#X connect 59 4 52 0;
#X connect 59 5 53 0;
#X connect 59 6 54 0;
#X connect 59 7 55 0;
#X connect 60 0 61 0;
#X connect 61 0 0 0;
#X connect 61 0 77 0;
#X connect 62 0 75 0;
#X connect 63 0 65 0;
#X connect 64 0 62 0;
#X connect 65 0 81 0;
#X connect 66 0 74 0;
#X connect 67 0 74 0;
#X connect 68 0 74 0;
#X connect 69 0 74 0;
#X connect 70 0 74 0;
#X connect 71 0 74 0;
#X connect 72 0 74 0;
#X connect 73 0 65 0;
#X connect 74 0 78 0;
#X connect 75 0 74 0;
#X connect 76 0 77 0;
#X connect 77 0 60 1;
#X connect 78 0 80 0;
#X connect 79 0 78 0;
#X connect 80 0 79 0;
#X connect 80 0 76 0;
#X connect 81 0 67 0;
#X connect 81 1 66 0;
#X connect 81 2 68 0;
#X connect 81 3 69 0;
#X connect 81 4 70 0;
#X connect 81 5 71 0;
#X connect 81 6 72 0;
#X connect 81 7 73 0;
#X connect 82 0 97 0;
#X connect 83 0 84 0;
#X connect 84 0 85 0;
#X connect 85 0 86 0;
#X connect 85 1 96 0;
#X connect 86 0 44 0;
#X connect 87 0 88 0;
#X connect 88 0 89 0;
#X connect 88 1 94 0;
#X connect 89 0 45 0;
#X connect 90 0 91 0;
#X connect 91 0 92 0;
#X connect 91 1 95 0;
#X connect 92 0 59 0;
#X connect 93 0 87 0;
#X connect 93 1 90 0;
#X connect 94 0 89 1;
#X connect 95 0 92 1;
#X connect 96 0 86 1;
#X connect 97 0 83 0;
#X connect 97 1 93 0;
#X connect 97 2 98 0;
#X connect 98 0 99 0;
#X connect 99 0 100 0;
#X connect 100 0 101 0;
#X connect 100 1 102 0;
#X connect 101 0 42 0;
#X connect 102 0 101 1;
#X coords 0 -1 1 1 124 307 1 100 100;
#X restore 103 124 pd metropolis;
#X obj 361 129 bng 15 250 50 0 empty empty random 17 7 0 10 -258113
-1 -1;
#N canvas 0 47 1048 1025 transport 0;
#X obj 288 50 midirealtimein;
#X obj 288 75 select 248 250 251 252;
#X obj 320 106 bng 15 250 50 0 empty empty empty 17 7 0 10 -262144
-1 -1;
#X obj 352 104 bng 15 250 50 0 empty empty empty 17 7 0 10 -262144
-1 -1;
#X obj 383 106 bng 15 250 50 0 empty empty empty 17 7 0 10 -262144
-1 -1;
#X obj 320 163 tgl 15 0 empty empty empty 17 7 0 10 -262144 -1 -1 1
1;
#X msg 320 125 1;
#X msg 383 126 0;
#X obj 107 172 spigot;
#X obj 158 196 - 1;
#X obj 107 229 +;
#X floatatom 107 252 5 0 0 0 - - -;
#X msg 107 196 1;
#X obj 107 273 / 24;
#X obj 234 379 int;
#X obj 109 315 * 4;
#X obj 113 346 int;
#X floatatom 113 369 5 0 0 0 - - -;
#X obj 113 395 % 64;
#X obj 50 477 outlet;
#X obj 112 421 change;
#X msg 349 125 1;
#X obj 206 400 % 4;
#X obj 206 423 + 1;
#X obj 263 379 / 4;
#X obj 263 401 int;
#X obj 263 423 + 1;
#X obj 206 453 pack 0 0 0;
#X obj 234 400 % 4;
#X obj 234 423 + 1;
#X obj 350 603 hsl 54 14 0 63 0 0 empty empty 7:1:2 2 7 0 10 -228856
-258113 -1 2776 1;
#X msg 206 476 label \$3:\$2:\$1;
#X obj 303 603 tgl 14 0 empty empty empty 17 7 0 10 -62784 -262144
-1 1 1;
#X msg 338 279 color 0;
#X msg 404 281 color 18;
#X obj 356 476 timer;
#X msg 356 499 set \$1;
#X floatatom 355 525 5 0 0 0 - - -;
#X obj 356 449 select 1 2 3 4;
#X obj 320 603 hsl 25 14 0 63 0 0 empty empty 109. 2 7 0 10 -262144
-262144 -1 0 1;
#X msg 355 570 label \$1.;
#X obj 355 547 expr 60000/((($i1 ) )*2);
#X obj 160 494 select 0;
#X obj 160 517 outlet;
#X connect 0 0 1 0;
#X connect 1 0 8 0;
#X connect 1 1 2 0;
#X connect 1 2 3 0;
#X connect 1 3 4 0;
#X connect 2 0 6 0;
#X connect 2 0 34 0;
#X connect 3 0 21 0;
#X connect 4 0 7 0;
#X connect 4 0 33 0;
#X connect 5 0 8 1;
#X connect 5 0 32 0;
#X connect 6 0 5 0;
#X connect 6 0 9 0;
#X connect 7 0 5 0;
#X connect 8 0 12 0;
#X connect 9 0 10 1;
#X connect 10 0 11 0;
#X connect 11 0 10 1;
#X connect 11 0 13 0;
#X connect 12 0 10 0;
#X connect 13 0 14 0;
#X connect 13 0 15 0;
#X connect 13 0 24 0;
#X connect 14 0 28 0;
#X connect 15 0 16 0;
#X connect 16 0 17 0;
#X connect 17 0 18 0;
#X connect 17 0 22 0;
#X connect 18 0 20 0;
#X connect 18 0 30 0;
#X connect 20 0 19 0;
#X connect 20 0 42 0;
#X connect 21 0 5 0;
#X connect 22 0 23 0;
#X connect 23 0 27 0;
#X connect 23 0 38 0;
#X connect 24 0 25 0;
#X connect 25 0 26 0;
#X connect 26 0 27 2;
#X connect 27 0 31 0;
#X connect 28 0 29 0;
#X connect 29 0 27 1;
#X connect 31 0 30 0;
#X connect 33 0 32 0;
#X connect 34 0 32 0;
#X connect 35 0 36 0;
#X connect 36 0 37 0;
#X connect 37 0 41 0;
#X connect 38 0 35 0;
#X connect 38 2 35 1;
#X connect 38 3 37 0;
#X connect 40 0 39 0;
#X connect 41 0 40 0;
#X connect 42 0 43 0;
#X coords 0 -1 1 1 110 20 2 300 600;
#X restore 103 102 pd transport;
#X floatatom 42 439 5 0 0 0 - - -;
#X obj 856 238 sp_808_seq;
#N canvas 0 47 1048 1025 demiautomatc 0;
#X obj 212 169 inlet;
#X obj 216 199 route bang;
#X obj 241 374 bng 15 250 50 0 empty empty empty 17 7 0 10 -262144
-1 -1;
#X msg 242 392 1;
#X obj 242 415 +;
#X floatatom 242 438 5 0 0 0 - - -;
#X obj 243 304 bng 15 250 50 0 empty empty empty 17 7 0 10 -262144
-1 -1;
#X msg 241 328 1;
#X obj 276 161 bng 15 250 50 0 empty empty empty 17 7 0 10 -262144
-1 -1;
#X obj 242 460 % 2;
#X floatatom 304 280 5 0 0 0 - - -;
#X obj 223 501 select 0;
#X msg 210 328 0;
#X msg 182 334 2;
#X obj 221 539 bng 15 250 50 0 empty empty empty 17 7 0 10 -262144
-1 -1;
#X obj 213 223 random 16;
#X obj 260 606 outlet;
#X obj 242 277 delay 10;
#X obj 241 350 metro 4;
#X connect 0 0 1 0;
#X connect 1 0 15 0;
#X connect 1 1 10 0;
#X connect 2 0 3 0;
#X connect 3 0 4 0;
#X connect 4 0 5 0;
#X connect 5 0 4 1;
#X connect 5 0 9 0;
#X connect 6 0 7 0;
#X connect 7 0 18 0;
#X connect 8 0 1 0;
#X connect 9 0 11 0;
#X connect 10 0 9 1;
#X connect 10 0 17 0;
#X connect 11 0 12 0;
#X connect 11 0 13 0;
#X connect 11 1 14 0;
#X connect 12 0 18 0;
#X connect 13 0 4 1;
#X connect 14 0 16 0;
#X connect 15 0 10 0;
#X connect 17 0 6 0;
#X connect 18 0 2 0;
#X restore 105 63 pd demiautomatc;
#X obj 362 104 bng 15 250 50 0 empty empty random2 17 7 0 10 -258113
-1 -1;
#X obj 156 28 random 100;
#X obj 361 154 bng 15 250 50 0 empty empty init 17 7 0 10 -86277 -1
-1;
#X msg 49 67 init;
#N canvas 0 47 1240 1025 arpish 0;
#X floatatom 257 512 5 0 127 0 Note - -;
#N canvas 0 47 1048 1025 arpdude 0;
#X obj 87 375 inlet;
#X obj 87 552 outlet;
#X obj 34 199 inlet;
#X obj 34 309 % 8;
#X floatatom 34 339 5 0 0 0 - - -;
#X obj 132 375 == 4;
#X obj 132 402 * 12;
#X floatatom 87 400 5 0 0 0 - - -;
#X obj 87 428 +;
#X obj 87 457 +;
#X obj 171 402 * 5;
#X obj 171 375 == 3;
#X floatatom 87 525 5 0 0 0 - - -;
#X obj 87 486 +;
#X obj 209 375 == 5;
#X obj 209 402 * 7;
#X obj 130 48 inlet;
#X floatatom 130 81 5 0 0 0 - - -;
#X obj 158 150 % 4;
#X obj 234 153 % 5;
#X obj 196 153 % 3;
#X obj 196 120 - 8;
#X obj 234 120 - 14;
#X floatatom 103 257 5 0 0 0 - - -;
#X obj 103 176 -, f 4;
#X obj 130 150 % 8;
#X obj 103 201 / 8;
#X obj 103 231 int;
#X obj 103 283 + 4;
#X connect 0 0 7 0;
#X connect 2 0 3 0;
#X connect 3 0 4 0;
#X connect 4 0 5 0;
#X connect 4 0 11 0;
#X connect 4 0 14 0;
#X connect 5 0 6 0;
#X connect 6 0 8 1;
#X connect 7 0 8 0;
#X connect 8 0 9 0;
#X connect 9 0 13 0;
#X connect 10 0 9 1;
#X connect 11 0 10 0;
#X connect 12 0 1 0;
#X connect 13 0 12 0;
#X connect 14 0 15 0;
#X connect 15 0 13 1;
#X connect 16 0 17 0;
#X connect 17 0 18 0;
#X connect 17 0 21 0;
#X connect 17 0 22 0;
#X connect 17 0 25 0;
#X connect 17 0 24 0;
#X connect 18 0 5 1;
#X connect 19 0 14 1;
#X connect 20 0 11 1;
#X connect 21 0 20 0;
#X connect 22 0 19 0;
#X connect 23 0 28 0;
#X connect 24 0 26 0;
#X connect 25 0 24 1;
#X connect 26 0 27 0;
#X connect 27 0 23 0;
#X connect 28 0 3 1;
#X restore 229 635 pd arpdude;
#X obj 184 554 +;
#X obj 184 577 % 8;
#X floatatom 184 626 5 0 0 0 - - -;
#X obj 184 437 inlet;
#X obj 184 514 % 8;
#X floatatom 234 464 5 0 0 0 - - -;
#X msg 234 427 8;
#X msg 259 427 12;
#X msg 285 427 24;
#X obj 286 601 random 127;
#X floatatom 297 628 5 0 0 0 - - -;
#X obj 286 583 bng 15 250 50 0 empty empty empty 17 7 0 10 -262144
-1 -1;
#X obj 229 665 outlet;
#X obj 139 437 inlet;
#X obj 479 260 inlet;
#X obj 234 320 bng 15 250 50 0 empty empty empty 17 7 0 10 -262144
-1 -1;
#X obj 234 342 random 5;
#X obj 234 365 select 0 1 2 3 4, f 22;
#X msg 311 427 5;
#X floatatom 337 427 5 0 0 0 - - -;
#X obj 337 386 random 3;
#X obj 337 406 + 2;
#X connect 0 0 1 1;
#X connect 1 0 14 0;
#X connect 2 0 3 0;
#X connect 3 0 2 1;
#X connect 3 0 4 0;
#X connect 3 0 1 0;
#X connect 5 0 6 0;
#X connect 6 0 2 0;
#X connect 7 0 6 1;
#X connect 8 0 7 0;
#X connect 9 0 7 0;
#X connect 10 0 7 0;
#X connect 11 0 1 2;
#X connect 11 0 12 0;
#X connect 13 0 11 0;
#X connect 15 0 0 0;
#X connect 16 0 13 0;
#X connect 16 0 17 0;
#X connect 17 0 18 0;
#X connect 18 0 19 0;
#X connect 19 0 8 0;
#X connect 19 1 9 0;
#X connect 19 2 10 0;
#X connect 19 3 20 0;
#X connect 19 4 22 0;
#X connect 20 0 7 0;
#X connect 21 0 7 0;
#X connect 22 0 23 0;
#X connect 23 0 21 0;
#X restore 924 93 pd arpish;
#N canvas 0 47 1048 1025 a4_perf 0;
#X obj 401 75 ctlin;
#X obj 401 104 pack 0 0 0;
#X msg 401 127 \$3 \$2 \$1;
#X obj 401 150 route 8;
#X obj 401 173 route 3 4 8 9 11 64 65 66 67 68;
#X obj 401 202 vsl 15 65 0 127 0 0 empty empty A 5 20 0 10 -262144
-1 -1 3024 1;
#X obj 416 202 vsl 15 65 0 127 0 0 empty empty B 5 20 0 10 -262144
-1 -1 4485 1;
#X obj 431 202 vsl 15 65 0 127 0 0 empty empty C 5 20 0 10 -262144
-1 -1 101 1;
#X obj 446 202 vsl 15 65 0 127 0 0 empty empty D 5 20 0 10 -262144
-1 -1 605 1;
#X obj 460 202 vsl 15 65 0 127 0 0 empty empty E 5 20 0 10 -262144
-1 -1 3780 1;
#X obj 477 202 vsl 15 65 0 127 0 0 empty empty F 5 20 0 10 -262144
-1 -1 3729 1;
#X obj 492 202 vsl 15 65 0 127 0 0 empty empty G 5 20 0 10 -262144
-1 -1 2671 1;
#X obj 507 202 vsl 15 65 0 127 0 0 empty empty H 5 20 0 10 -262144
-1 -1 50 1;
#X obj 522 202 vsl 15 65 0 127 0 0 empty empty I 5 20 0 10 -262144
-1 -1 0 1;
#X obj 536 202 vsl 15 65 0 127 0 0 empty empty J 5 20 0 10 -262144
-1 -1 857 1;
#X obj 401 355 ctlout;
#X obj 401 334 unpack 0 0 0;
#N canvas 0 47 1240 1025 change10 0;
#X obj 225 198 inlet;
#X obj 225 221 change;
#X obj 274 198 inlet;
#X obj 274 221 change;
#X obj 321 199 inlet;
#X obj 321 222 change;
#X obj 370 199 inlet;
#X obj 370 222 change;
#X obj 434 195 inlet;
#X obj 434 218 change;
#X obj 483 195 inlet;
#X obj 483 218 change;
#X obj 530 196 inlet;
#X obj 530 219 change;
#X obj 579 196 inlet;
#X obj 579 219 change;
#X obj 648 188 inlet;
#X obj 648 211 change;
#X obj 697 188 inlet;
#X obj 697 211 change;
#X msg 297 318 4 \$1;
#X msg 258 318 3 \$1;
#X msg 337 318 8 \$1;
#X msg 376 318 9 \$1;
#X msg 411 318 11 \$1;
#X msg 474 319 64 \$1;
#X msg 513 319 65 \$1;
#X msg 553 319 66 \$1;
#X msg 592 319 67 \$1;
#X msg 627 319 68 \$1;
#X obj 275 394 list prepend 8;
#X obj 275 417 outlet;
#X connect 0 0 1 0;
#X connect 1 0 21 0;
#X connect 2 0 3 0;
#X connect 3 0 20 0;
#X connect 4 0 5 0;
#X connect 5 0 22 0;
#X connect 6 0 7 0;
#X connect 7 0 23 0;
#X connect 8 0 9 0;
#X connect 9 0 24 0;
#X connect 10 0 11 0;
#X connect 11 0 25 0;
#X connect 12 0 13 0;
#X connect 13 0 26 0;
#X connect 14 0 15 0;
#X connect 15 0 27 0;
#X connect 16 0 17 0;
#X connect 17 0 28 0;
#X connect 18 0 19 0;
#X connect 19 0 29 0;
#X connect 20 0 30 0;
#X connect 21 0 30 0;
#X connect 22 0 30 0;
#X connect 23 0 30 0;
#X connect 24 0 30 0;
#X connect 25 0 30 0;
#X connect 26 0 30 0;
#X connect 27 0 30 0;
#X connect 28 0 30 0;
#X connect 29 0 30 0;
#X connect 30 0 31 0;
#X restore 401 285 pd change10;
#X f 32;
#X msg 401 312 \$3 \$2 \$1;
#X obj 183 132 inlet;
#X obj 225 132 inlet;
#X obj 264 132 inlet;
#X obj 306 132 inlet;
#X obj 347 132 inlet;
#X obj 646 173 inlet;
#X obj 688 173 inlet;
#X obj 727 173 inlet;
#X obj 769 173 inlet;
#X obj 810 173 inlet;
#X obj 158 308 outlet;
#X obj 201 308 outlet;
#X obj 245 308 outlet;
#X obj 288 308 outlet;
#X obj 334 308 outlet;
#X obj 619 352 outlet;
#X obj 662 352 outlet;
#X obj 706 352 outlet;
#X obj 749 352 outlet;
#X obj 795 352 outlet;
#X connect 0 0 1 0;
#X connect 0 1 1 1;
#X connect 0 2 1 2;
#X connect 1 0 2 0;
#X connect 2 0 3 0;
#X connect 3 0 4 0;
#X connect 4 0 5 0;
#X connect 4 1 6 0;
#X connect 4 2 7 0;
#X connect 4 3 8 0;
#X connect 4 4 9 0;
#X connect 4 5 10 0;
#X connect 4 6 11 0;
#X connect 4 7 12 0;
#X connect 4 8 13 0;
#X connect 4 9 14 0;
#X connect 5 0 17 0;
#X connect 5 0 29 0;
#X connect 6 0 17 1;
#X connect 6 0 30 0;
#X connect 7 0 17 2;
#X connect 7 0 31 0;
#X connect 8 0 17 3;
#X connect 8 0 32 0;
#X connect 9 0 17 4;
#X connect 9 0 33 0;
#X connect 10 0 17 5;
#X connect 10 0 34 0;
#X connect 11 0 17 6;
#X connect 11 0 35 0;
#X connect 12 0 17 7;
#X connect 12 0 36 0;
#X connect 13 0 17 8;
#X connect 13 0 37 0;
#X connect 14 0 17 9;
#X connect 14 0 38 0;
#X connect 16 0 15 0;
#X connect 16 1 15 1;
#X connect 16 2 15 2;
#X connect 17 0 18 0;
#X connect 18 0 16 0;
#X connect 19 0 5 0;
#X connect 20 0 6 0;
#X connect 21 0 7 0;
#X connect 22 0 8 0;
#X connect 23 0 9 0;
#X connect 24 0 10 0;
#X connect 25 0 11 0;
#X connect 26 0 12 0;
#X connect 27 0 13 0;
#X connect 28 0 14 0;
#X coords 0 -1 1 1 152 71 2 400 200;
#X restore 234 175 pd a4_perf;
#N canvas 0 47 952 1025 a4_mixer 0;
#X obj 420 8 ctlin;
#X obj 420 37 pack 0 0 0;
#X obj 401 202 vsl 15 65 0 127 0 0 empty empty 1 5 20 0 10 -262144
-1 -1 4485 1;
#X obj 416 202 vsl 15 65 0 127 0 0 empty empty 2 5 20 0 10 -262144
-1 -1 0 1;
#X obj 431 202 vsl 15 65 0 127 0 0 empty empty 3 5 20 0 10 -262144
-1 -1 4183 1;
#X obj 446 202 vsl 15 65 0 127 0 0 empty empty 4 5 20 0 10 -262144
-1 -1 0 1;
#X obj 491 203 vsl 15 65 0 127 0 0 empty empty F 5 20 0 10 -228856
-1 -1 5140 1;
#X obj 48 434 ctlout;
#X obj 48 407 unpack 0 0 0;
#X obj 39 178 inlet;
#X obj 81 178 inlet;
#X obj 120 178 inlet;
#X obj 162 178 inlet;
#X obj 203 178 inlet;
#X obj 34 279 outlet;
#X obj 77 279 outlet;
#X obj 121 279 outlet;
#X obj 164 279 outlet;
#X obj 210 279 outlet;
#X msg 420 60 \$2 \$3 \$1;
#X obj 398 158 route 1 2 3 4 5;
#X obj 48 353 change;
#X msg 48 376 \$1 95 1;
#X obj 102 352 change;
#X obj 161 352 change;
#X obj 215 351 change;
#X obj 275 350 change;
#X msg 102 375 \$1 95 2;
#X msg 161 375 \$1 95 3;
#X msg 215 374 \$1 95 4;
#X msg 275 373 \$1 95 5;
#X obj 631 84 == 0;
#X obj 632 59 route 1 2 3 4 5 6;
#X obj 663 84 == 0;
#X obj 696 84 == 0;
#X obj 727 85 == 0;
#X obj 766 85 == 0;
#X obj 797 86 == 0;
#X obj 505 200 tgl 15 0 empty empty empty 17 7 0 10 -261681 -261681
-1 1 1;
#X obj 505 214 tgl 15 0 empty empty empty 17 7 0 10 -261681 -261681
-1 1 1;
#X obj 505 228 tgl 15 0 empty empty empty 17 7 0 10 -261681 -261681
-1 1 1;
#X obj 505 242 tgl 15 0 empty empty empty 17 7 0 10 -261681 -261681
-1 1 1;
#X obj 505 256 tgl 8 0 empty empty empty 17 7 0 10 -261681 -261681
-1 0 1;
#X obj 688 379 ctlout;
#X obj 688 352 unpack 0 0 0;
#X obj 688 298 change;
#X obj 742 297 change;
#X obj 801 297 change;
#X obj 855 296 change;
#X obj 915 295 change;
#X msg 688 321 \$1 94 1;
#X msg 742 320 \$1 94 2;
#X msg 801 320 \$1 94 3;
#X msg 855 319 \$1 94 4;
#X msg 915 318 \$1 94 5;
#X obj 684 273 == 0;
#X obj 739 271 == 0;
#X obj 806 267 == 0;
#X obj 855 263 == 0;
#X obj 915 267 == 0, f 5;
#X obj 979 294 change;
#X obj 979 266 == 0, f 5;
#X msg 979 317 \$1 94 6;
#X obj 512 263 tgl 8 0 empty empty empty 17 7 0 10 -261681 -261681
-1 0 1;
#X obj 677 170 * 4;
#X msg 678 192 color \$1 \$1;
#X obj 755 170 * 4;
#X msg 756 192 color \$1 \$1;
#X obj 832 171 * 4;
#X msg 833 193 color \$1 \$1;
#X obj 910 171 * 4;
#X msg 911 193 color \$1 \$1;
#X obj 1008 166 * 4;
#X msg 1007 192 color \$1 \$1;
#X obj 1095 163 * 4;
#X msg 1094 189 color \$1 \$1;
#X obj 461 203 vsl 15 65 0 127 0 0 empty empty XL 2 20 0 10 -204786
-1 -1 4838 1;
#X obj 249 178 inlet;
#X obj 256 279 outlet;
#X obj 332 351 change;
#X msg 332 374 \$1 95 5;
#X obj 476 203 vsl 15 65 0 127 0 0 empty empty XR 2 20 0 10 -204786
-1 -1 5291 1;
#X obj 296 178 inlet;
#X obj 303 279 outlet;
#X obj 387 349 change;
#X msg 387 372 \$1 95 5;
#X obj 420 83 route 95 94 7 31;
#X obj 489 107 route 5;
#X obj 466 132 route 5;
#X connect 0 0 1 0;
#X connect 0 1 1 1;
#X connect 0 2 1 2;
#X connect 1 0 19 0;
#X connect 2 0 14 0;
#X connect 2 0 21 0;
#X connect 3 0 15 0;
#X connect 3 0 23 0;
#X connect 4 0 16 0;
#X connect 4 0 24 0;
#X connect 5 0 17 0;
#X connect 5 0 25 0;
#X connect 6 0 18 0;
#X connect 6 0 26 0;
#X connect 8 0 7 0;
#X connect 8 1 7 1;
#X connect 8 2 7 2;
#X connect 9 0 2 0;
#X connect 10 0 3 0;
#X connect 11 0 4 0;
#X connect 12 0 5 0;
#X connect 13 0 6 0;
#X connect 19 0 86 0;
#X connect 20 0 2 0;
#X connect 20 1 3 0;
#X connect 20 2 4 0;
#X connect 20 3 5 0;
#X connect 20 4 6 0;
#X connect 21 0 22 0;
#X connect 22 0 8 0;
#X connect 23 0 27 0;
#X connect 24 0 28 0;
#X connect 25 0 29 0;
#X connect 26 0 30 0;
#X connect 27 0 8 0;
#X connect 28 0 8 0;
#X connect 29 0 8 0;
#X connect 30 0 8 0;
#X connect 31 0 38 0;
#X connect 32 0 31 0;
#X connect 32 1 33 0;
#X connect 32 2 34 0;
#X connect 32 3 35 0;
#X connect 32 4 36 0;
#X connect 32 5 37 0;
#X connect 33 0 39 0;
#X connect 34 0 40 0;
#X connect 35 0 41 0;
#X connect 36 0 42 0;
#X connect 37 0 63 0;
#X connect 38 0 55 0;
#X connect 38 0 64 0;
#X connect 39 0 56 0;
#X connect 39 0 66 0;
#X connect 40 0 57 0;
#X connect 40 0 68 0;
#X connect 41 0 58 0;
#X connect 41 0 70 0;
#X connect 42 0 59 0;
#X connect 42 0 72 0;
#X connect 44 0 43 0;
#X connect 44 1 43 1;
#X connect 44 2 43 2;
#X connect 45 0 50 0;
#X connect 46 0 51 0;
#X connect 47 0 52 0;
#X connect 48 0 53 0;
#X connect 49 0 54 0;
#X connect 50 0 44 0;
#X connect 51 0 44 0;
#X connect 52 0 44 0;
#X connect 53 0 44 0;
#X connect 54 0 44 0;
#X connect 55 0 45 0;
#X connect 56 0 46 0;
#X connect 57 0 47 0;
#X connect 58 0 48 0;
#X connect 59 0 49 0;
#X connect 60 0 62 0;
#X connect 61 0 60 0;
#X connect 62 0 44 0;
#X connect 63 0 61 0;
#X connect 63 0 74 0;
#X connect 64 0 65 0;
#X connect 65 0 38 0;
#X connect 66 0 67 0;
#X connect 67 0 39 0;
#X connect 68 0 69 0;
#X connect 69 0 40 0;
#X connect 70 0 71 0;
#X connect 71 0 41 0;
#X connect 72 0 73 0;
#X connect 73 0 42 0;
#X connect 74 0 75 0;
#X connect 75 0 63 0;
#X connect 76 0 78 0;
#X connect 76 0 79 0;
#X connect 77 0 76 0;
#X connect 79 0 80 0;
#X connect 81 0 83 0;
#X connect 81 0 84 0;
#X connect 82 0 81 0;
#X connect 84 0 85 0;
#X connect 86 0 20 0;
#X connect 86 1 32 0;
#X connect 86 2 88 0;
#X connect 86 3 87 0;
#X connect 87 0 81 0;
#X connect 88 0 76 0;
#X coords 0 -1 1 1 136 71 2 400 200;
#X restore 234 102 pd a4_mixer;
#N canvas 0 47 1048 1025 euclid_arp 0;
#N canvas 0 47 1048 1025 euclid2 0;
#N canvas 0 47 1048 1025 euclid 0;
#X obj 49 68 inlet;
#X obj 106 131 inlet;
#X obj 49 267 select 1;
#X obj 49 299 outlet;
#X obj 162 185 inlet;
#X text 145 130 specify desired number of hits per bar;
#X text 208 182 specify length of bar;
#X text 88 66 <-- send an integer to find out if there should be a
hit on that beat;
#X obj 49 202 % \$3;
#X text 48 379 Generates 'euclidean rhythms' (see cgm.cs.mcgill.ca/~godfried/publications/banff.pdf).
Ideally to be used with a [metro]-powered [f ]x[+ 1] counter attached
to the first inlet. Hits per bar \, offset and bar length can be set
by the first three arguments respectively.;
#X text 111 266 <-- bang out on each hit. (Silent on rest.);
#X obj 49 137 + \$2;
#X obj 49 169 * \$1;
#X obj 49 235 < \$1;
#X obj 133 156 inlet;
#X text 167 155 rhythm offset/rotation;
#X connect 0 0 11 0;
#X connect 1 0 12 1;
#X connect 1 0 13 1;
#X connect 2 0 3 0;
#X connect 4 0 8 1;
#X connect 8 0 13 0;
#X connect 11 0 12 0;
#X connect 12 0 8 0;
#X connect 13 0 2 0;
#X connect 14 0 11 1;
#X restore 53 221 pd euclid;
#X floatatom 53 85 5 0 0 0 - - -;
#X obj 53 252 bng 15 250 50 0 empty empty empty 17 7 0 10 -262144 -1
-1;
#X floatatom 100 128 5 0 100 0 - - -;
#X floatatom 260 172 5 0 0 0 - - -;
#X obj 118 107 bng 15 250 50 0 empty empty empty 17 7 0 10 -262144
-1 -1;
#X floatatom 183 114 5 0 0 0 - - -;
#X obj 100 153 / 100;
#X obj 100 178 *;
#X obj 53 32 inlet;
#X obj 100 66 inlet;
#X obj 260 140 inlet;
#X text 306 137 specify length of bar;
#X text 104 17 <-- send an integer to find out if there should be a
hit on that beat;
#X text 98 275 <-- bang out on each hit. (Silent on rest.);
#X obj 183 86 inlet;
#X text 226 84 rhythm offset/rotation;
#X obj 53 272 outlet;
#X text 151 61 specify desired % of hits per bar;
#X connect 0 0 2 0;
#X connect 1 0 0 0;
#X connect 2 0 17 0;
#X connect 3 0 7 0;
#X connect 4 0 5 0;
#X connect 4 0 8 1;
#X connect 4 0 0 3;
#X connect 5 0 3 0;
#X connect 6 0 0 2;
#X connect 7 0 8 0;
#X connect 8 0 0 1;
#X connect 9 0 1 0;
#X connect 10 0 3 0;
#X connect 11 0 4 0;
#X connect 15 0 6 0;
#X restore 259 338 pd euclid2;
#X floatatom 275 263 5 0 100 0 % - -;
#X floatatom 340 264 5 0 64 0 Rot - -;
#X floatatom 406 265 5 1 64 0 Len - -;
#X floatatom 257 512 5 0 127 0 Note - -;
#N canvas 0 47 1048 1025 randomeuclid 0;
#X obj 27 146 random 100;
#X obj 181 84 bng 15 250 50 0 empty empty empty 17 7 0 10 -262144 -1
-1;
#X obj 79 25 inlet;
#X obj 27 177 outlet;
#X obj 103 146 random 100;
#X obj 103 177 outlet;
#X obj 181 146 random 100;
#X obj 181 177 outlet;
#X obj 79 55 route maxlength;
#X connect 0 0 3 0;
#X connect 1 0 0 0;
#X connect 1 0 4 0;
#X connect 1 0 6 0;
#X connect 2 0 8 0;
#X connect 4 0 5 0;
#X connect 6 0 7 0;
#X connect 8 0 6 1;
#X connect 8 0 4 1;
#X connect 8 1 1 0;
#X restore 291 198 pd randomeuclid;
#X obj 296 163 bng 15 250 50 0 empty empty empty 17 7 0 10 -262144
-1 -1;
#N canvas 0 47 1048 1025 arpdude 0;
#X obj 87 375 inlet;
#X obj 87 552 outlet;
#X obj 34 199 inlet;
#X obj 34 309 % 8;
#X floatatom 34 339 5 0 0 0 - - -;
#X obj 132 375 == 4;
#X obj 132 402 * 12;
#X floatatom 87 400 5 0 0 0 - - -;
#X obj 87 428 +;
#X obj 87 457 +;
#X obj 171 402 * 5;
#X obj 171 375 == 3;
#X floatatom 87 525 5 0 0 0 - - -;
#X obj 87 486 +;
#X obj 209 375 == 5;
#X obj 209 402 * 7;
#X obj 130 48 inlet;
#X floatatom 130 81 5 0 0 0 - - -;
#X obj 158 150 % 4;
#X obj 234 153 % 5;
#X obj 196 153 % 3;
#X obj 196 120 - 8;
#X obj 234 120 - 14;
#X floatatom 103 257 5 0 0 0 - - -;
#X obj 103 176 -, f 4;
#X obj 130 150 % 8;
#X obj 103 201 / 8;
#X obj 103 231 int;
#X obj 103 283 + 4;
#X connect 0 0 7 0;
#X connect 2 0 3 0;
#X connect 3 0 4 0;
#X connect 4 0 5 0;
#X connect 4 0 11 0;
#X connect 4 0 14 0;
#X connect 5 0 6 0;
#X connect 6 0 8 1;
#X connect 7 0 8 0;
#X connect 8 0 9 0;
#X connect 9 0 13 0;
#X connect 10 0 9 1;
#X connect 11 0 10 0;
#X connect 12 0 1 0;
#X connect 13 0 12 0;
#X connect 14 0 15 0;
#X connect 15 0 13 1;
#X connect 16 0 17 0;
#X connect 17 0 18 0;
#X connect 17 0 21 0;
#X connect 17 0 22 0;
#X connect 17 0 25 0;
#X connect 17 0 24 0;
#X connect 18 0 5 1;
#X connect 19 0 14 1;
#X connect 20 0 11 1;
#X connect 21 0 20 0;
#X connect 22 0 19 0;
#X connect 23 0 28 0;
#X connect 24 0 26 0;
#X connect 25 0 24 1;
#X connect 26 0 27 0;
#X connect 27 0 23 0;
#X connect 28 0 3 1;
#X restore 229 635 pd arpdude;
#X obj 202 571 +;
#X obj 202 594 % 8;
#X floatatom 184 626 5 0 0 0 - - -;
#X obj 160 241 inlet;
#X obj 184 514 % 8;
#X obj 308 571 random 127;
#X floatatom 308 594 5 0 0 0 - - -;
#X obj 326 164 bng 15 250 50 0 empty empty empty 17 7 0 10 -262144
-1 -1;
#X obj 229 691 outlet;
#X obj 57 430 inlet;
#X obj 297 114 inlet;
#X floatatom 382 470 5 0 0 0 - - -;
#X msg 382 433 8;
#X msg 407 433 12;
#X msg 433 433 24;
#X obj 382 326 bng 15 250 50 0 empty empty empty 17 7 0 10 -262144
-1 -1;
#X obj 382 348 random 5;
#X obj 382 371 select 0 1 2 3 4, f 22;
#X msg 459 433 5;
#X floatatom 485 433 5 0 0 0 - - -;
#X obj 485 392 random 3;
#X obj 485 412 + 2;
#X obj 291 382 bng 15 250 50 0 empty empty empty 17 7 0 10 -262144
-1 -1;
#X obj 217 256 / 4;
#X obj 217 279 int;
#X obj 217 302 change;
#X connect 0 0 4 0;
#X connect 0 0 30 0;
#X connect 1 0 0 1;
#X connect 2 0 0 2;
#X connect 3 0 0 3;
#X connect 4 0 7 1;
#X connect 5 0 1 0;
#X connect 5 1 2 0;
#X connect 5 2 3 0;
#X connect 6 0 5 0;
#X connect 7 0 16 0;
#X connect 8 0 9 0;
#X connect 9 0 8 1;
#X connect 9 0 10 0;
#X connect 9 0 7 0;
#X connect 11 0 12 0;
#X connect 11 0 31 0;
#X connect 12 0 8 0;
#X connect 13 0 7 2;
#X connect 13 0 14 0;
#X connect 15 0 13 0;
#X connect 15 0 23 0;
#X connect 17 0 4 0;
#X connect 18 0 15 0;
#X connect 18 0 6 0;
#X connect 19 0 12 1;
#X connect 20 0 19 0;
#X connect 21 0 19 0;
#X connect 22 0 19 0;
#X connect 23 0 24 0;
#X connect 24 0 25 0;
#X connect 25 0 20 0;
#X connect 25 1 21 0;
#X connect 25 2 22 0;
#X connect 25 3 26 0;
#X connect 25 4 28 0;
#X connect 26 0 19 0;
#X connect 27 0 19 0;
#X connect 28 0 29 0;
#X connect 29 0 27 0;
#X connect 31 0 32 0;
#X connect 32 0 33 0;
#X connect 33 0 0 0;
#X restore 936 196 pd euclid_arp;
#N canvas 0 47 1048 1025 euclid_mod 0;
#X floatatom 363 580 5 0 16 0 n - -;
#X floatatom 417 580 5 0 16 0 Rot - -;
#X floatatom 471 580 5 1 16 0 Len - -;
#X floatatom 350 699 5 0 127 0 Note - -;
#N canvas 0 47 1048 1025 randomeuclid 0;
#X obj 163 86 bng 15 250 50 0 empty empty empty 17 7 0 10 -262144 -1
-1;
#X obj 79 25 inlet;
#X obj 16 268 outlet;
#X obj 99 259 outlet;
#X obj 181 223 outlet;
#X obj 176 124 random 16;
#X obj 99 232 random;
#X obj 16 237 random 2;
#X obj 176 153 + 1;
#X obj 89 181 bng 15 250 50 0 empty empty empty 17 7 0 10 -262144 -1
-1;
#X obj 63 209 / 3;
#X connect 0 0 5 0;
#X connect 1 0 0 0;
#X connect 5 0 8 0;
#X connect 6 0 3 0;
#X connect 7 0 2 0;
#X connect 8 0 4 0;
#X connect 8 0 6 1;
#X connect 8 0 9 0;
#X connect 8 0 10 0;
#X connect 9 0 6 0;
#X connect 9 0 7 0;
#X connect 10 0 7 1;
#X restore 540 556 pd randomeuclid;
#X obj 403 559 bng 15 250 50 0 empty empty r 17 7 0 10 -258113 -1 -1
;
#X obj 181 315 inlet;
#X obj 57 596 inlet;
#X obj 168 469 spigot;
#X obj 211 468 spigot;
#X obj 358 559 tgl 15 0 empty empty sync 17 7 0 10 -262144 -1 -1 1
1;
#X obj 229 439 == 0;
#X floatatom 187 593 5 0 0 0 - - -;
#X obj 228 526 +;
#X msg 217 498 1;
#X floatatom 180 397 5 0 0 0 - - -;
#X obj 180 359 change;
#X obj 794 379 inlet;
#X obj 885 346 inlet;
#X obj 733 381 inlet;
#X obj 267 296 loadbang;
#X obj 350 729 outlet;
#X obj 761 693 outlet;
#X obj 851 678 outlet;
#X msg 57 619 set \$1;
#X obj 882 419 max 1;
#X obj 759 653 change;
#X obj 851 651 change;
#X msg 267 319 1;
#X msg 350 379 0 \, 1 \, 2 \, 3 \, 4 \, 5 \, 6 \, 7 \, 8 \, 9 \, 10
\, 11 \, 12 \, 13 \, 14 \, 15;
#X obj 696 683 outlet;
#X obj 696 658 change;
#X obj 353 602 sp_808_seq;
#X obj 340 489 pack;
#X obj 367 437 pack 0 0 0 0;
#X floatatom 349 408 5 0 0 0 - - -;
#N canvas 0 47 1048 1025 eclid_clean_classic 0;
#X obj 278 627 * \$1;
#X obj 360 748 < \$1;
#X floatatom 486 579 5 0 0 0 - - -;
#X floatatom 299 531 5 0 64 0 Rot - -;
#X obj 327 804 outlet;
#X obj 159 193 inlet;
#X obj 333 276 %;
#X obj 257 207 inlet;
#X obj 341 201 inlet;
#X obj 393 205 inlet, f 6;
#X obj 278 311 pack 0 0 0 0;
#X obj 275 396 unpack 0 0 0 0;
#X msg 276 354 \$1 \$3 \$2 \$4;
#X floatatom 360 771 5 0 0 0 - - -;
#X obj 275 572 + \$2;
#X obj 310 711 % \$3;
#X obj 624 757 outlet;
#X obj 673 681 expr (((($i1 + ($i3%$i4) )* $i2) % $i4) < $i2);
#X connect 0 0 15 0;
#X connect 1 0 4 0;
#X connect 1 0 13 0;
#X connect 2 0 15 1;
#X connect 3 0 14 1;
#X connect 5 0 10 0;
#X connect 6 0 10 2;
#X connect 7 0 10 1;
#X connect 8 0 6 0;
#X connect 9 0 10 3;
#X connect 9 0 6 1;
#X connect 10 0 12 0;
#X connect 10 0 17 0;
#X connect 11 0 14 0;
#X connect 11 1 3 0;
#X connect 11 2 0 1;
#X connect 11 2 1 1;
#X connect 11 3 2 0;
#X connect 12 0 11 0;
#X connect 14 0 0 0;
#X connect 15 0 1 0;
#X connect 17 0 16 0;
#X restore 175 42 pd eclid_clean_classic;
#X obj 340 462 + 1;
#X obj 367 462 expr ((((((($i1%16)*-1)+16) + $i3 )* $i2) % $i4) < $i2)
;
#X obj 27 66 expr ((((((($i1%16)*-1)+16) + $i3 )* $i2) % $i4) < $i2)
;
#X msg 528 671 len \$1;
#X obj 350 660 select 1;
#X obj 884 372 min 16;
#X obj 789 458 min 16;
#X obj 719 456 min 16;
#X obj 815 428 bng 15 250 50 0 empty empty empty 17 7 0 10 -262144
-1 -1;
#X obj 414 731 outlet;
#X obj 883 395 int;
#X obj 794 402 int;
#X obj 733 422 int;
#X obj 696 743 bng 15 250 50 0 empty empty empty 17 7 0 10 -262144
-1 -1;
#X msg 411 694 1;
#X connect 0 0 34 1;
#X connect 0 0 31 0;
#X connect 1 0 26 0;
#X connect 1 0 34 2;
#X connect 2 0 27 0;
#X connect 2 0 34 3;
#X connect 2 0 40 0;
#X connect 3 0 21 0;
#X connect 4 0 0 0;
#X connect 4 1 1 0;
#X connect 4 2 2 0;
#X connect 5 0 4 0;
#X connect 6 0 16 0;
#X connect 7 0 24 0;
#X connect 8 0 12 0;
#X connect 9 0 14 0;
#X connect 10 0 8 1;
#X connect 10 0 11 0;
#X connect 11 0 9 1;
#X connect 12 0 13 1;
#X connect 12 0 32 0;
#X connect 13 0 12 0;
#X connect 14 0 13 0;
#X connect 15 0 9 0;
#X connect 15 0 8 0;
#X connect 16 0 15 0;
#X connect 17 0 48 0;
#X connect 18 0 42 0;
#X connect 18 0 45 0;
#X connect 19 0 49 0;
#X connect 20 0 28 0;
#X connect 24 0 3 0;
#X connect 25 0 2 0;
#X connect 25 0 43 1;
#X connect 25 0 44 1;
#X connect 26 0 22 0;
#X connect 26 0 50 0;
#X connect 27 0 23 0;
#X connect 27 0 50 0;
#X connect 28 0 10 0;
#X connect 29 0 35 0;
#X connect 31 0 30 0;
#X connect 31 0 50 0;
#X connect 32 0 41 0;
#X connect 33 0 32 1;
#X connect 34 0 38 0;
#X connect 35 0 34 0;
#X connect 35 0 37 0;
#X connect 37 0 33 0;
#X connect 38 0 33 1;
#X connect 40 0 32 1;
#X connect 41 0 3 0;
#X connect 41 0 51 0;
#X connect 42 0 47 0;
#X connect 43 0 1 0;
#X connect 44 0 0 0;
#X connect 45 0 43 0;
#X connect 45 0 44 0;
#X connect 47 0 25 0;
#X connect 48 0 43 0;
#X connect 49 0 44 0;
#X connect 50 0 29 0;
#X connect 51 0 46 0;
#X coords 0 -1 1 1 185 90 2 350 550;
#X restore 235 248 pd euclid_mod;
#N canvas 0 47 1048 1025 euclid_mod 0;
#X floatatom 303 250 5 0 100 0 % - -;
#X floatatom 303 267 5 0 64 0 Rot - -;
#X floatatom 303 283 5 1 64 0 Len - -;
#X floatatom 271 662 5 0 127 0 Note - -;
#N canvas 0 47 1048 1025 randomeuclid 0;
#X obj 27 146 random 100;
#X obj 181 84 bng 15 250 50 0 empty empty empty 17 7 0 10 -262144 -1
-1;
#X obj 79 25 inlet;
#X obj 27 177 outlet;
#X obj 103 146 random 100;
#X obj 103 177 outlet;
#X obj 181 146 random 100;
#X obj 181 177 outlet;
#X obj 79 55 route maxlength;
#X connect 0 0 3 0;
#X connect 1 0 0 0;
#X connect 1 0 4 0;
#X connect 1 0 6 0;
#X connect 2 0 8 0;
#X connect 4 0 5 0;
#X connect 6 0 7 0;
#X connect 8 0 6 1;
#X connect 8 0 4 1;
#X connect 8 1 1 0;
#X restore 259 165 pd randomeuclid;
#X obj 252 269 bng 15 250 50 0 empty empty r 17 7 0 10 -258113 -1 -1
;
#X obj 97 177 inlet;
#X obj 33 536 inlet;
#X obj 84 331 spigot;
#X obj 127 330 spigot;
#X obj 252 252 tgl 15 0 empty empty sync 17 7 0 10 -262144 -1 -1 1
1;
#X obj 145 301 == 0;
#X floatatom 106 452 5 0 0 0 - - -;
#X obj 144 388 +;
#X msg 133 360 1;
#X floatatom 96 259 5 0 0 0 - - -;
#X obj 96 221 change;
#X floatatom 450 171 5 0 0 0 - - -;
#X floatatom 485 171 5 0 0 0 - - -;
#X floatatom 405 174 5 0 0 0 - - -;
#X obj 443 48 inlet;
#X obj 510 47 inlet;
#X obj 402 49 inlet;
#X obj 183 158 loadbang;
#X obj 267 723 outlet;
#X obj 352 475 outlet;
#X obj 421 383 outlet;
#X obj 467 383 outlet;
#X msg 33 559 set \$1;
#X obj 459 216 max 1;
#X obj 401 124 min 100;
#X obj 450 149 % 65;
#X obj 485 148 % 65;
#X obj 452 119 min 64;
#X obj 496 112 min 64;
#X obj 346 436 change;
#X obj 419 343 change;
#X obj 468 333 change;
#X obj 399 74 / 127;
#X obj 399 97 * 100;
#X obj 342 335 / 100;
#X obj 342 358 * 127;
#X floatatom 345 405 5 0 0 0 - - -;
#X obj 342 381 int;
#X msg 183 181 1;
#X obj 266 616 select 1;
#N canvas 0 47 1048 1025 eclid_clean 0;
#X obj 278 627 * \$1;
#X obj 360 748 < \$1;
#X floatatom 441 457 5 0 0 0 - - -;
#X floatatom 340 446 5 0 100 0 % - -;
#X obj 342 541 / 100;
#X obj 378 581 *;
#X floatatom 299 531 5 0 64 0 Rot - -;
#X obj 327 804 outlet;
#X obj 445 798 outlet;
#X obj 185 60 inlet;
#N canvas 0 47 1048 1025 randomeuclid 0;
#X obj 27 146 random 100;
#X obj 181 84 bng 15 250 50 0 empty empty empty 17 7 0 10 -262144 -1
-1;
#X obj 79 25 inlet;
#X obj 27 177 outlet;
#X obj 103 146 random 100;
#X obj 103 177 outlet;
#X obj 181 146 random 100;
#X obj 181 177 outlet;
#X obj 79 55 route maxlength;
#X connect 0 0 3 0;
#X connect 1 0 0 0;
#X connect 1 0 4 0;
#X connect 1 0 6 0;
#X connect 2 0 8 0;
#X connect 4 0 5 0;
#X connect 6 0 7 0;
#X connect 8 0 6 1;
#X connect 8 0 4 1;
#X connect 8 1 1 0;
#X restore 298 169 pd randomeuclid;
#X obj 180 113 bng 15 250 50 0 empty empty r 17 7 0 10 -258113 -1 -1
;
#X obj 333 276 %;
#X obj 184 89 route rand;
#X obj 258 207 inlet;
#X obj 346 199 inlet;
#X obj 398 203 inlet, f 6;
#X obj 278 311 pack 0 0 0 0;
#X obj 275 396 unpack 0 0 0 0;
#X msg 276 354 \$1 \$3 \$2 \$4;
#X floatatom 360 771 5 0 0 0 - - -;
#X obj 378 658 int;
#X obj 275 572 + \$2;
#X obj 378 605 + 0;
#X obj 310 711 % \$3;
#X connect 0 0 24 0;
#X connect 1 0 7 0;
#X connect 1 0 20 0;
#X connect 2 0 5 1;
#X connect 2 0 8 0;
#X connect 2 0 24 1;
#X connect 3 0 4 0;
#X connect 4 0 5 0;
#X connect 5 0 23 0;
#X connect 6 0 22 1;
#X connect 9 0 13 0;
#X connect 10 0 17 1;
#X connect 10 1 12 0;
#X connect 10 2 12 1;
#X connect 11 0 10 0;
#X connect 12 0 17 2;
#X connect 13 0 11 0;
#X connect 13 1 17 0;
#X connect 14 0 17 1;
#X connect 15 0 12 0;
#X connect 16 0 17 3;
#X connect 16 0 12 1;
#X connect 17 0 19 0;
#X connect 18 0 22 0;
#X connect 18 1 6 0;
#X connect 18 2 3 0;
#X connect 18 3 2 0;
#X connect 19 0 18 0;
#X connect 21 0 1 1;
#X connect 21 0 0 1;
#X connect 22 0 0 0;
#X connect 23 0 21 0;
#X connect 24 0 1 0;
#X restore 266 591 pd eclid_clean;
#X connect 0 0 40 0;
#X connect 0 0 46 1;
#X connect 1 0 36 0;
#X connect 1 0 46 2;
#X connect 2 0 37 0;
#X connect 2 0 46 3;
#X connect 3 0 24 0;
#X connect 4 0 0 0;
#X connect 4 1 1 0;
#X connect 4 2 2 0;
#X connect 5 0 4 0;
#X connect 6 0 16 0;
#X connect 7 0 28 0;
#X connect 8 0 12 0;
#X connect 9 0 14 0;
#X connect 10 0 8 1;
#X connect 10 0 11 0;
#X connect 11 0 9 1;
#X connect 12 0 13 1;
#X connect 12 0 46 0;
#X connect 13 0 12 0;
#X connect 14 0 13 0;
#X connect 15 0 9 0;
#X connect 15 0 8 0;
#X connect 16 0 15 0;
#X connect 17 0 1 0;
#X connect 18 0 29 0;
#X connect 19 0 0 0;
#X connect 20 0 33 0;
#X connect 21 0 34 0;
#X connect 22 0 38 0;
#X connect 23 0 44 0;
#X connect 28 0 3 0;
#X connect 29 0 2 0;
#X connect 30 0 19 0;
#X connect 31 0 17 0;
#X connect 32 0 18 0;
#X connect 33 0 31 0;
#X connect 34 0 32 0;
#X connect 35 0 25 0;
#X connect 36 0 26 0;
#X connect 37 0 27 0;
#X connect 38 0 39 0;
#X connect 39 0 30 0;
#X connect 40 0 41 0;
#X connect 41 0 43 0;
#X connect 42 0 35 0;
#X connect 43 0 42 0;
#X connect 44 0 10 0;
#X connect 45 0 3 0;
#X connect 46 0 45 0;
#X coords 0 -1 1 1 85 60 2 250 250;
#X restore 780 42 pd euclid_mod;
#N canvas 0 47 952 1025 a4_notegen 0;
#X obj 132 504 sp_a4notegen;
#X obj 274 403 pack;
#X obj 274 351 int;
#X obj 295 380 expr max(($f1 / 127 )*200 \, 50);
#X msg 275 428 vel \$1 \, gatetime \$2 \, rootnote 48;
#X obj 274 305 inlet;
#X obj 132 461 inlet;
#X obj 164 349 inlet;
#X obj 211 425 inlet;
#X msg 211 449 octchange \$1;
#X obj 336 450 inlet;
#X obj 164 372 select 1 bang;
#X msg 165 430 1;
#X obj 274 328 max 1;
#X connect 1 0 4 0;
#X connect 2 0 1 0;
#X connect 2 0 3 0;
#X connect 3 0 1 1;
#X connect 4 0 0 2;
#X connect 5 0 13 0;
#X connect 6 0 0 0;
#X connect 7 0 11 0;
#X connect 8 0 9 0;
#X connect 9 0 0 2;
#X connect 10 0 0 2;
#X connect 11 0 12 0;
#X connect 12 0 0 1;
#X connect 13 0 2 0;
#X restore 51 541 pd a4_notegen;
#X msg 127 513 chan 1;
#N canvas 0 47 952 1025 acid_arp 0;
#X floatatom 257 512 5 0 127 0 Note - -;
#N canvas 0 47 952 1025 arpdude 0;
#X obj 87 375 inlet;
#X obj 87 552 outlet;
#X obj 34 199 inlet;
#X obj 34 309 % 8;
#X floatatom 34 339 5 0 0 0 - - -;
#X obj 132 375 == 4;
#X obj 132 402 * 12;
#X floatatom 87 400 5 0 0 0 - - -;
#X obj 87 428 +;
#X obj 87 457 +;
#X obj 171 402 * 5;
#X obj 171 375 == 3;
#X floatatom 87 525 5 0 0 0 - - -;
#X obj 87 486 +;
#X obj 209 375 == 5;
#X obj 209 402 * 7;
#X obj 130 48 inlet;
#X floatatom 130 81 5 0 0 0 - - -;
#X obj 158 150 % 4;
#X obj 234 153 % 5;
#X obj 196 153 % 3;
#X obj 196 120 - 8;
#X obj 234 120 - 14;
#X floatatom 103 257 5 0 0 0 - - -;
#X obj 103 176 -, f 4;
#X obj 130 150 % 8;
#X obj 103 201 / 8;
#X obj 103 231 int;
#X obj 103 283 + 4;
#X connect 0 0 7 0;
#X connect 2 0 3 0;
#X connect 3 0 4 0;
#X connect 4 0 5 0;
#X connect 4 0 11 0;
#X connect 4 0 14 0;
#X connect 5 0 6 0;
#X connect 6 0 8 1;
#X connect 7 0 8 0;
#X connect 8 0 9 0;
#X connect 9 0 13 0;
#X connect 10 0 9 1;
#X connect 11 0 10 0;
#X connect 12 0 1 0;
#X connect 13 0 12 0;
#X connect 14 0 15 0;
#X connect 15 0 13 1;
#X connect 16 0 17 0;
#X connect 17 0 18 0;
#X connect 17 0 21 0;
#X connect 17 0 22 0;
#X connect 17 0 25 0;
#X connect 17 0 24 0;
#X connect 18 0 5 1;
#X connect 19 0 14 1;
#X connect 20 0 11 1;
#X connect 21 0 20 0;
#X connect 22 0 19 0;
#X connect 23 0 28 0;
#X connect 24 0 26 0;
#X connect 25 0 24 1;
#X connect 26 0 27 0;
#X connect 27 0 23 0;
#X connect 28 0 3 1;
#X restore 229 635 pd arpdude;
#X obj 202 571 +;
#X obj 202 594 % 8;
#X floatatom 184 626 5 0 0 0 - - -;
#X obj 179 419 inlet;
#X obj 184 514 % 8;
#X floatatom 351 295 5 0 0 0 - - -;
#X obj 229 691 outlet;
#X obj 57 430 inlet;
#X obj 345 257 inlet;
#X floatatom 382 470 5 0 0 0 - - -;
#X msg 382 433 8;
#X msg 407 433 12;
#X msg 433 433 24;
#X obj 382 371 select 0 1 2 3 4, f 22;
#X msg 459 433 5;
#X floatatom 485 433 5 0 0 0 - - -;
#X obj 485 392 random 3;
#X obj 485 412 + 2;
#X obj 377 326 % 5;
#X floatatom 244 665 5 0 0 0 - - -;
#X obj 354 822 cnv 15 100 60 empty empty empty 20 12 0 14 -233017 -66577
0;
#X connect 0 0 1 1;
#X connect 1 0 8 0;
#X connect 1 0 21 0;
#X connect 2 0 3 0;
#X connect 3 0 2 1;
#X connect 3 0 4 0;
#X connect 3 0 1 0;
#X connect 5 0 6 0;
#X connect 6 0 2 0;
#X connect 7 0 20 0;
#X connect 7 0 1 2;
#X connect 9 0 0 0;
#X connect 10 0 7 0;
#X connect 11 0 6 1;
#X connect 12 0 11 0;
#X connect 13 0 11 0;
#X connect 14 0 11 0;
#X connect 15 0 12 0;
#X connect 15 1 13 0;
#X connect 15 2 14 0;
#X connect 15 3 16 0;
#X connect 15 4 18 0;
#X connect 16 0 11 0;
#X connect 17 0 11 0;
#X connect 18 0 19 0;
#X connect 19 0 17 0;
#X connect 20 0 15 0;
#X restore 188 511 pd acid_arp;
#N canvas 0 47 952 1025 a4_notegen 0;
#X obj 132 504 sp_a4notegen;
#X obj 274 403 pack;
#X obj 274 351 int;
#X obj 295 380 expr max(($f1 / 127 )*200 \, 50);
#X msg 275 428 vel \$1 \, gatetime \$2 \, rootnote 48;
#X obj 274 305 inlet;
#X obj 132 461 inlet;
#X obj 164 367 inlet;
#X obj 211 425 inlet;
#X msg 211 449 octchange \$1;
#X obj 336 450 inlet;
#X msg 165 412 1;
#X obj 164 390 select 1 bang;
#X obj 274 328 max 1;
#X connect 1 0 4 0;
#X connect 2 0 1 0;
#X connect 2 0 3 0;
#X connect 3 0 1 1;
#X connect 4 0 0 2;
#X connect 5 0 13 0;
#X connect 6 0 0 0;
#X connect 7 0 12 0;
#X connect 8 0 9 0;
#X connect 9 0 0 2;
#X connect 10 0 0 2;
#X connect 11 0 0 1;
#X connect 12 0 11 0;
#X connect 12 1 11 0;
#X connect 13 0 2 0;
#X restore 609 336 pd a4_notegen;
#N canvas 0 47 952 1025 a4_notegen 0;
#X obj 132 504 sp_a4notegen;
#X obj 274 403 pack;
#X obj 274 351 int;
#X obj 295 380 expr max(($f1 / 127 )*200 \, 50);
#X msg 275 428 vel \$1 \, gatetime \$2 \, rootnote 48;
#X obj 274 305 inlet;
#X obj 132 461 inlet;
#X obj 171 337 inlet;
#X obj 211 425 inlet;
#X msg 211 449 octchange \$1;
#X obj 336 450 inlet;
#X msg 169 405 1;
#X obj 189 435 bng 15 250 50 0 empty empty empty 17 7 0 10 -262144
-1 -1;
#X obj 171 360 select 1 bang;
#X obj 274 328 max 1;
#X obj 217 596 + 1;
#X floatatom 217 619 5 0 0 0 - - -;
#X msg 219 559 1;
#X connect 1 0 4 0;
#X connect 2 0 1 0;
#X connect 2 0 3 0;
#X connect 3 0 1 1;
#X connect 4 0 0 2;
#X connect 5 0 14 0;
#X connect 6 0 0 0;
#X connect 7 0 13 0;
#X connect 8 0 9 0;
#X connect 9 0 0 2;
#X connect 10 0 0 2;
#X connect 11 0 0 1;
#X connect 11 0 12 0;
#X connect 12 0 17 0;
#X connect 13 0 11 0;
#X connect 14 0 2 0;
#X connect 15 0 16 0;
#X connect 16 0 15 1;
#X connect 17 0 15 0;
#X restore 189 549 pd a4_notegen;
#N canvas 0 47 952 1025 a4_notegen 0;
#X obj 132 504 sp_a4notegen;
#X obj 274 403 pack;
#X obj 274 351 int;
#X obj 295 380 expr max(($f1 / 127 )*200 \, 50);
#X msg 275 428 vel \$1 \, gatetime \$2 \, rootnote 48;
#X obj 274 305 inlet;
#X obj 132 461 inlet;
#X obj 161 370 inlet;
#X obj 211 425 inlet;
#X msg 211 449 octchange \$1;
#X obj 336 450 inlet;
#X msg 170 426 1;
#X obj 170 403 select 1 bang;
#X obj 274 328 max 1;
#X connect 1 0 4 0;
#X connect 2 0 1 0;
#X connect 2 0 3 0;
#X connect 3 0 1 1;
#X connect 4 0 0 2;
#X connect 5 0 13 0;
#X connect 6 0 0 0;
#X connect 7 0 12 0;
#X connect 8 0 9 0;
#X connect 9 0 0 2;
#X connect 10 0 0 2;
#X connect 11 0 0 1;
#X connect 12 0 11 0;
#X connect 12 1 11 0;
#X connect 13 0 2 0;
#X restore 434 444 pd a4_notegen;
#X msg 690 311 chan 2;
#X msg 271 524 chan 3;
#X msg 506 416 chan 4;
#N canvas 0 47 1048 1025 euclid_mod 0;
#X floatatom 363 580 5 0 16 0 n - -;
#X floatatom 417 580 5 0 16 0 Rot - -;
#X floatatom 471 580 5 1 16 0 Len - -;
#X floatatom 350 699 5 0 127 0 Note - -;
#N canvas 0 47 1048 1025 randomeuclid 0;
#X obj 163 86 bng 15 250 50 0 empty empty empty 17 7 0 10 -262144 -1
-1;
#X obj 79 25 inlet;
#X obj 16 268 outlet;
#X obj 99 259 outlet;
#X obj 181 223 outlet;
#X obj 176 124 random 16;
#X obj 99 232 random;
#X obj 16 237 random 2;
#X obj 176 153 + 1;
#X obj 89 181 bng 15 250 50 0 empty empty empty 17 7 0 10 -262144 -1
-1;
#X obj 63 209 / 3;
#X connect 0 0 5 0;
#X connect 1 0 0 0;
#X connect 5 0 8 0;
#X connect 6 0 3 0;
#X connect 7 0 2 0;
#X connect 8 0 4 0;
#X connect 8 0 6 1;
#X connect 8 0 9 0;
#X connect 8 0 10 0;
#X connect 9 0 6 0;
#X connect 9 0 7 0;
#X connect 10 0 7 1;
#X restore 540 556 pd randomeuclid;
#X obj 403 559 bng 15 250 50 0 empty empty r 17 7 0 10 -258113 -1 -1
;
#X obj 181 315 inlet;
#X obj 57 596 inlet;
#X obj 168 469 spigot;
#X obj 211 468 spigot;
#X obj 358 559 tgl 15 0 empty empty sync 17 7 0 10 -262144 -1 -1 1
1;
#X obj 229 439 == 0;
#X floatatom 187 593 5 0 0 0 - - -;
#X obj 228 526 +;
#X msg 217 498 1;
#X floatatom 180 397 5 0 0 0 - - -;
#X obj 180 359 change;
#X obj 794 379 inlet;
#X obj 885 346 inlet;
#X obj 733 381 inlet;
#X obj 267 296 loadbang;
#X obj 350 729 outlet;
#X obj 761 693 outlet;
#X obj 845 703 outlet;
#X msg 57 619 set \$1;
#X obj 882 419 max 1;
#X obj 759 653 change;
#X obj 851 651 change;
#X msg 267 319 1;
#X msg 350 379 0 \, 1 \, 2 \, 3 \, 4 \, 5 \, 6 \, 7 \, 8 \, 9 \, 10
\, 11 \, 12 \, 13 \, 14 \, 15;
#X obj 696 683 outlet;
#X obj 696 658 change;
#X obj 353 602 sp_808_seq;
#X obj 340 489 pack;
#X obj 367 437 pack 0 0 0 0;
#X floatatom 349 408 5 0 0 0 - - -;
#N canvas 0 47 1048 1025 eclid_clean_classic 0;
#X obj 278 627 * \$1;
#X obj 360 748 < \$1;
#X floatatom 486 579 5 0 0 0 - - -;
#X floatatom 299 531 5 0 64 0 Rot - -;
#X obj 327 804 outlet;
#X obj 159 193 inlet;
#X obj 333 276 %;
#X obj 257 207 inlet;
#X obj 341 201 inlet;
#X obj 393 205 inlet, f 6;
#X obj 278 311 pack 0 0 0 0;
#X obj 275 396 unpack 0 0 0 0;
#X msg 276 354 \$1 \$3 \$2 \$4;
#X floatatom 360 771 5 0 0 0 - - -;
#X obj 275 572 + \$2;
#X obj 310 711 % \$3;
#X obj 624 757 outlet;
#X obj 673 681 expr (((($i1 + ($i3%$i4) )* $i2) % $i4) < $i2);
#X connect 0 0 15 0;
#X connect 1 0 4 0;
#X connect 1 0 13 0;
#X connect 2 0 15 1;
#X connect 3 0 14 1;
#X connect 5 0 10 0;
#X connect 6 0 10 2;
#X connect 7 0 10 1;
#X connect 8 0 6 0;
#X connect 9 0 10 3;
#X connect 9 0 6 1;
#X connect 10 0 12 0;
#X connect 10 0 17 0;
#X connect 11 0 14 0;
#X connect 11 1 3 0;
#X connect 11 2 0 1;
#X connect 11 2 1 1;
#X connect 11 3 2 0;
#X connect 12 0 11 0;
#X connect 14 0 0 0;
#X connect 15 0 1 0;
#X connect 17 0 16 0;
#X restore 175 42 pd eclid_clean_classic;
#X obj 340 462 + 1;
#X obj 367 462 expr ((((((($i1%16)*-1)+16) + $i3 )* $i2) % $i4) < $i2)
;
#X obj 27 66 expr ((((((($i1%16)*-1)+16) + $i3 )* $i2) % $i4) < $i2)
;
#X msg 528 671 len \$1;
#X obj 350 660 select 1;
#X obj 884 372 min 16;
#X obj 789 458 min 16;
#X obj 719 456 min 16;
#X obj 815 428 bng 15 250 50 0 empty empty empty 17 7 0 10 -262144
-1 -1;
#X obj 414 731 outlet;
#X obj 883 395 int;
#X obj 794 402 int;
#X obj 733 422 int;
#X obj 405 318 bng 15 250 50 0 empty empty empty 17 7 0 10 -262144
-1 -1;
#X msg 412 694 1;
#X connect 0 0 34 1;
#X connect 0 0 31 0;
#X connect 1 0 26 0;
#X connect 1 0 34 2;
#X connect 2 0 27 0;
#X connect 2 0 34 3;
#X connect 2 0 40 0;
#X connect 3 0 21 0;
#X connect 4 0 0 0;
#X connect 4 1 1 0;
#X connect 4 2 2 0;
#X connect 5 0 4 0;
#X connect 6 0 16 0;
#X connect 7 0 24 0;
#X connect 8 0 12 0;
#X connect 9 0 14 0;
#X connect 10 0 8 1;
#X connect 10 0 11 0;
#X connect 11 0 9 1;
#X connect 12 0 13 1;
#X connect 12 0 32 0;
#X connect 13 0 12 0;
#X connect 14 0 13 0;
#X connect 15 0 9 0;
#X connect 15 0 8 0;
#X connect 16 0 15 0;
#X connect 17 0 48 0;
#X connect 18 0 42 0;
#X connect 18 0 45 0;
#X connect 19 0 49 0;
#X connect 20 0 28 0;
#X connect 24 0 3 0;
#X connect 25 0 2 0;
#X connect 25 0 43 1;
#X connect 25 0 44 1;
#X connect 26 0 22 0;
#X connect 26 0 50 0;
#X connect 27 0 23 0;
#X connect 27 0 50 0;
#X connect 28 0 10 0;
#X connect 29 0 35 0;
#X connect 31 0 30 0;
#X connect 31 0 50 0;
#X connect 32 0 41 0;
#X connect 33 0 32 1;
#X connect 34 0 38 0;
#X connect 35 0 34 0;
#X connect 35 0 37 0;
#X connect 37 0 33 0;
#X connect 38 0 33 1;
#X connect 40 0 32 1;
#X connect 41 0 3 0;
#X connect 41 0 51 0;
#X connect 42 0 47 0;
#X connect 43 0 1 0;
#X connect 44 0 0 0;
#X connect 45 0 43 0;
#X connect 45 0 44 0;
#X connect 47 0 25 0;
#X connect 48 0 43 0;
#X connect 49 0 44 0;
#X connect 50 0 29 0;
#X connect 51 0 46 0;
#X coords 0 -1 1 1 185 90 2 350 550;
#X restore 235 342 pd euclid_mod;
#X obj 460 390 min;
#X obj 463 416 min;
#X obj 450 4 netreceive -u 3000;
#X obj 450 27 route apcmini;
#X obj 450 50 route fader;
#X obj 450 73 route 0 1 2 3 4 5 6 7 8;
#X connect 0 0 20 1;
#X connect 0 0 16 1;
#X connect 0 0 27 1;
#X connect 2 0 5 0;
#X connect 2 0 18 0;
#X connect 2 0 16 0;
#X connect 2 0 27 0;
#X connect 2 1 18 1;
#X connect 2 2 20 0;
#X connect 2 3 22 1;
#X connect 3 0 7 0;
#X connect 4 0 0 0;
#X connect 4 0 2 1;
#X connect 4 1 2 2;
#X connect 7 0 2 0;
#X connect 8 0 9 0;
#X connect 9 0 7 0;
#X connect 10 0 11 0;
#X connect 11 0 2 0;
#X connect 13 0 18 2;
#X connect 13 0 28 0;
#X connect 13 1 21 2;
#X connect 13 1 28 1;
#X connect 13 2 16 2;
#X connect 13 3 16 3;
#X connect 13 4 16 4;
#X connect 13 5 22 2;
#X connect 13 5 29 1;
#X connect 13 6 20 2;
#X connect 13 7 27 2;
#X connect 13 8 27 3;
#X connect 13 9 27 4;
#X connect 14 0 18 3;
#X connect 14 0 19 0;
#X connect 14 1 24 0;
#X connect 14 1 21 3;
#X connect 14 2 25 0;
#X connect 14 2 22 3;
#X connect 14 3 26 0;
#X connect 14 3 23 3;
#X connect 16 0 21 0;
#X connect 16 1 21 1;
#X connect 16 2 13 2;
#X connect 16 3 13 3;
#X connect 16 4 13 4;
#X connect 19 0 18 4;
#X connect 20 0 22 0;
#X connect 24 0 21 4;
#X connect 25 0 22 4;
#X connect 26 0 23 4;
#X connect 27 0 23 0;
#X connect 27 1 23 1;
#X connect 27 2 13 7;
#X connect 27 3 13 8;
#X connect 27 4 13 8;
#X connect 28 0 29 0;
#X connect 29 0 23 2;
#X connect 30 0 31 0;
#X connect 31 0 32 0;
#X connect 32 0 33 0;
#X connect 32 1 2 3;
#X connect 33 0 14 0;
#X connect 33 1 14 1;
#X connect 33 2 14 2;
#X connect 33 3 14 3;
#X connect 33 4 14 5;
#X connect 33 5 14 6;
#X connect 33 8 14 4;
#X coords 0 -1 1 1 320 350 2 100 100;
#X restore 9 23 pd betatchoonsm8;
#X obj 628 39 ctlin, f 10;
#X obj 628 62 pack 0 0 0;
#X obj 628 84 print ctlin;
#X obj 736 120 ctlout, f 12;
#X obj 736 95 unpack 0 0 0;
#X msg 736 67 0 10 5 \, 127 5 5;
#X msg 736 45 Stereo Input;
#X msg 838 67 64 10 5 \, 64 5 5;
#X msg 838 45 Dual Mono;
#X text 624 149 tap to nudge - ge the flase one beat by clicking/tapping
;
#X connect 1 0 2 0;
#X connect 1 1 2 1;
#X connect 1 2 2 2;
#X connect 2 0 3 0;
#X connect 5 0 4 0;
#X connect 5 1 4 1;
#X connect 5 2 4 2;
#X connect 6 0 5 0;
#X connect 7 0 6 0;
#X connect 8 0 5 0;
#X connect 9 0 8 0;
