#N canvas 0 47 1240 1025 10;
#X obj 120 402 spigot;
#N canvas 0 47 1048 1025 elkmute 0;
#X obj 49 57 ctlin 94;
#X obj 49 88 pack 0 0;
#X msg 49 115 \$2 \$1;
#X obj 49 140 route;
#X obj 49 167 == 0;
#X obj 130 67 inlet;
#X obj 50 196 outlet;
#X obj 122 117 loadbang;
#X msg 122 142 0;
#X connect 0 0 1 0;
#X connect 0 1 1 1;
#X connect 1 0 2 0;
#X connect 2 0 3 0;
#X connect 3 0 4 0;
#X connect 4 0 6 0;
#X connect 5 0 3 1;
#X connect 7 0 8 0;
#X connect 8 0 4 0;
#X restore 153 358 pd elkmute;
#X obj 153 383 tgl 15 0 empty empty empty 17 7 0 10 -262144 -1 -1 1
1;
#X obj 176 288 spigot;
#X obj 221 227 select 1;
#X obj 350 539 makenote, f 12;
#X obj 350 283 * 110;
#X obj 204 492 + 48, f 14;
#X msg 350 256 1;
#X obj 230 248 bng 15 250 50 0 empty empty empty 17 7 0 10 -262144
-1 -1;
#X obj 221 289 <, f 11;
#X obj 219 443 * 12;
#X obj 204 466 + 0;
#X obj 426 188 max 25;
#X obj 394 584 noteout, f 9;
#X floatatom 456 319 5 0 0 0 - - -;
#X floatatom 437 212 5 0 0 0 - - -;
#X obj 284 156 max 0;
#X obj 284 178 min 127;
#X obj 221 266 random 127;
#X obj 221 172 inlet;
#X obj 247 59 route chan octchance rootnote vel gatetime;
#X obj 377 189 min 127;
#X obj 377 167 max 1;
#X obj 285 448 max 24;
#X obj 285 470 min 96;
#X obj 168 98 inlet;
#X obj 247 30 inlet;
#X floatatom 200 530 5 0 0 0 - - -;
#X floatatom 370 313 5 0 0 0 - - -;
#X floatatom 235 467 5 0 0 0 - - -;
#X floatatom 231 199 5 0 0 0 - - -;
#X msg 168 128 set \$1;
#X floatatom 176 261 5 0 0 0 - - -;
#X obj 350 561 poly 2 1, f 12;
#X connect 0 0 12 0;
#X connect 1 0 2 0;
#X connect 2 0 0 1;
#X connect 3 0 0 0;
#X connect 4 0 8 0;
#X connect 4 0 9 0;
#X connect 4 0 19 0;
#X connect 4 0 33 0;
#X connect 5 0 34 0;
#X connect 5 1 34 1;
#X connect 6 0 5 1;
#X connect 6 0 29 0;
#X connect 7 0 5 0;
#X connect 7 0 28 0;
#X connect 8 0 6 0;
#X connect 10 0 11 0;
#X connect 11 0 12 1;
#X connect 11 0 30 0;
#X connect 12 0 7 0;
#X connect 13 0 5 2;
#X connect 13 0 16 0;
#X connect 15 0 14 2;
#X connect 15 0 1 0;
#X connect 17 0 18 0;
#X connect 18 0 10 1;
#X connect 19 0 10 0;
#X connect 20 0 3 1;
#X connect 20 0 4 0;
#X connect 20 0 31 0;
#X connect 21 0 15 0;
#X connect 21 1 17 0;
#X connect 21 2 24 0;
#X connect 21 3 23 0;
#X connect 21 4 13 0;
#X connect 22 0 6 1;
#X connect 23 0 22 0;
#X connect 24 0 25 0;
#X connect 25 0 7 1;
#X connect 26 0 32 0;
#X connect 27 0 21 0;
#X connect 32 0 33 0;
#X connect 33 0 3 0;
#X connect 34 1 14 0;
#X connect 34 2 14 1;
